<?xml version="1.0" encoding="utf-8" standalone="no"?>
<!DOCTYPE svg PUBLIC "-//W3C//DTD SVG 1.1//EN"
  "http://www.w3.org/Graphics/SVG/1.1/DTD/svg11.dtd">
<svg xmlns:xlink="http://www.w3.org/1999/xlink" width="1082.898125pt" height="823.008125pt" viewBox="0 0 1082.898125 823.008125" xmlns="http://www.w3.org/2000/svg" version="1.1">
 <metadata>
  <rdf:RDF xmlns:dc="http://purl.org/dc/elements/1.1/" xmlns:cc="http://creativecommons.org/ns#" xmlns:rdf="http://www.w3.org/1999/02/22-rdf-syntax-ns#">
   <cc:Work>
    <dc:type rdf:resource="http://purl.org/dc/dcmitype/StillImage"/>
    <dc:date>2024-05-26T16:20:52.771366</dc:date>
    <dc:format>image/svg+xml</dc:format>
    <dc:creator>
     <cc:Agent>
      <dc:title>Matplotlib v3.8.0, https://matplotlib.org/</dc:title>
     </cc:Agent>
    </dc:creator>
   </cc:Work>
  </rdf:RDF>
 </metadata>
 <defs>
  <style type="text/css">*{stroke-linejoin: round; stroke-linecap: butt}</style>
 </defs>
 <g id="figure_1">
  <g id="patch_1">
   <path d="M 0 823.008125 
L 1082.898125 823.008125 
L 1082.898125 0 
L 0 0 
z
" style="fill: #ffffff"/>
  </g>
  <g id="axes_1">
   <g id="patch_2">
    <path d="M 71.298125 415.68 
L 517.698125 415.68 
L 517.698125 98.88 
L 71.298125 98.88 
z
" style="fill: #ffffff"/>
   </g>
   <g id="matplotlib.axis_1">
    <g id="xtick_1">
     <g id="line2d_1">
      <path d="M 91.589034 415.68 
L 91.589034 98.88 
" clip-path="url(#pec1d3000de)" style="fill: none; stroke: #b0b0b0; stroke-width: 0.8; stroke-linecap: square"/>
     </g>
     <g id="line2d_2">
      <defs>
       <path id="mf00a5328e5" d="M 0 0 
L 0 3.5 
" style="stroke: #000000; stroke-width: 0.8"/>
      </defs>
      <g>
       <use xlink:href="#mf00a5328e5" x="91.589034" y="415.68" style="stroke: #000000; stroke-width: 0.8"/>
      </g>
     </g>
    </g>
    <g id="xtick_2">
     <g id="line2d_3">
      <path d="M 172.75267 415.68 
L 172.75267 98.88 
" clip-path="url(#pec1d3000de)" style="fill: none; stroke: #b0b0b0; stroke-width: 0.8; stroke-linecap: square"/>
     </g>
     <g id="line2d_4">
      <g>
       <use xlink:href="#mf00a5328e5" x="172.75267" y="415.68" style="stroke: #000000; stroke-width: 0.8"/>
      </g>
     </g>
    </g>
    <g id="xtick_3">
     <g id="line2d_5">
      <path d="M 253.916307 415.68 
L 253.916307 98.88 
" clip-path="url(#pec1d3000de)" style="fill: none; stroke: #b0b0b0; stroke-width: 0.8; stroke-linecap: square"/>
     </g>
     <g id="line2d_6">
      <g>
       <use xlink:href="#mf00a5328e5" x="253.916307" y="415.68" style="stroke: #000000; stroke-width: 0.8"/>
      </g>
     </g>
    </g>
    <g id="xtick_4">
     <g id="line2d_7">
      <path d="M 335.079943 415.68 
L 335.079943 98.88 
" clip-path="url(#pec1d3000de)" style="fill: none; stroke: #b0b0b0; stroke-width: 0.8; stroke-linecap: square"/>
     </g>
     <g id="line2d_8">
      <g>
       <use xlink:href="#mf00a5328e5" x="335.079943" y="415.68" style="stroke: #000000; stroke-width: 0.8"/>
      </g>
     </g>
    </g>
    <g id="xtick_5">
     <g id="line2d_9">
      <path d="M 416.24358 415.68 
L 416.24358 98.88 
" clip-path="url(#pec1d3000de)" style="fill: none; stroke: #b0b0b0; stroke-width: 0.8; stroke-linecap: square"/>
     </g>
     <g id="line2d_10">
      <g>
       <use xlink:href="#mf00a5328e5" x="416.24358" y="415.68" style="stroke: #000000; stroke-width: 0.8"/>
      </g>
     </g>
    </g>
    <g id="xtick_6">
     <g id="line2d_11">
      <path d="M 497.407216 415.68 
L 497.407216 98.88 
" clip-path="url(#pec1d3000de)" style="fill: none; stroke: #b0b0b0; stroke-width: 0.8; stroke-linecap: square"/>
     </g>
     <g id="line2d_12">
      <g>
       <use xlink:href="#mf00a5328e5" x="497.407216" y="415.68" style="stroke: #000000; stroke-width: 0.8"/>
      </g>
     </g>
    </g>
   </g>
   <g id="matplotlib.axis_2">
    <g id="ytick_1">
     <g id="line2d_13">
      <path d="M 71.298125 397.038575 
L 517.698125 397.038575 
" clip-path="url(#pec1d3000de)" style="fill: none; stroke: #b0b0b0; stroke-width: 0.8; stroke-linecap: square"/>
     </g>
     <g id="line2d_14">
      <defs>
       <path id="m50c8b83477" d="M 0 0 
L -3.5 0 
" style="stroke: #000000; stroke-width: 0.8"/>
      </defs>
      <g>
       <use xlink:href="#m50c8b83477" x="71.298125" y="397.038575" style="stroke: #000000; stroke-width: 0.8"/>
      </g>
     </g>
     <g id="text_1">
      <!-- 0.0 -->
      <g transform="translate(32.491875 404.637013) scale(0.2 -0.2)">
       <defs>
        <path id="DejaVuSans-30" d="M 2034 4250 
Q 1547 4250 1301 3770 
Q 1056 3291 1056 2328 
Q 1056 1369 1301 889 
Q 1547 409 2034 409 
Q 2525 409 2770 889 
Q 3016 1369 3016 2328 
Q 3016 3291 2770 3770 
Q 2525 4250 2034 4250 
z
M 2034 4750 
Q 2819 4750 3233 4129 
Q 3647 3509 3647 2328 
Q 3647 1150 3233 529 
Q 2819 -91 2034 -91 
Q 1250 -91 836 529 
Q 422 1150 422 2328 
Q 422 3509 836 4129 
Q 1250 4750 2034 4750 
z
" transform="scale(0.015625)"/>
        <path id="DejaVuSans-2e" d="M 684 794 
L 1344 794 
L 1344 0 
L 684 0 
L 684 794 
z
" transform="scale(0.015625)"/>
       </defs>
       <use xlink:href="#DejaVuSans-30"/>
       <use xlink:href="#DejaVuSans-2e" x="63.623047"/>
       <use xlink:href="#DejaVuSans-30" x="95.410156"/>
      </g>
     </g>
    </g>
    <g id="ytick_2">
     <g id="line2d_15">
      <path d="M 71.298125 340.28686 
L 517.698125 340.28686 
" clip-path="url(#pec1d3000de)" style="fill: none; stroke: #b0b0b0; stroke-width: 0.8; stroke-linecap: square"/>
     </g>
     <g id="line2d_16">
      <g>
       <use xlink:href="#m50c8b83477" x="71.298125" y="340.28686" style="stroke: #000000; stroke-width: 0.8"/>
      </g>
     </g>
     <g id="text_2">
      <!-- 0.2 -->
      <g transform="translate(32.491875 347.885298) scale(0.2 -0.2)">
       <defs>
        <path id="DejaVuSans-32" d="M 1228 531 
L 3431 531 
L 3431 0 
L 469 0 
L 469 531 
Q 828 903 1448 1529 
Q 2069 2156 2228 2338 
Q 2531 2678 2651 2914 
Q 2772 3150 2772 3378 
Q 2772 3750 2511 3984 
Q 2250 4219 1831 4219 
Q 1534 4219 1204 4116 
Q 875 4013 500 3803 
L 500 4441 
Q 881 4594 1212 4672 
Q 1544 4750 1819 4750 
Q 2544 4750 2975 4387 
Q 3406 4025 3406 3419 
Q 3406 3131 3298 2873 
Q 3191 2616 2906 2266 
Q 2828 2175 2409 1742 
Q 1991 1309 1228 531 
z
" transform="scale(0.015625)"/>
       </defs>
       <use xlink:href="#DejaVuSans-30"/>
       <use xlink:href="#DejaVuSans-2e" x="63.623047"/>
       <use xlink:href="#DejaVuSans-32" x="95.410156"/>
      </g>
     </g>
    </g>
    <g id="ytick_3">
     <g id="line2d_17">
      <path d="M 71.298125 283.535145 
L 517.698125 283.535145 
" clip-path="url(#pec1d3000de)" style="fill: none; stroke: #b0b0b0; stroke-width: 0.8; stroke-linecap: square"/>
     </g>
     <g id="line2d_18">
      <g>
       <use xlink:href="#m50c8b83477" x="71.298125" y="283.535145" style="stroke: #000000; stroke-width: 0.8"/>
      </g>
     </g>
     <g id="text_3">
      <!-- 0.4 -->
      <g transform="translate(32.491875 291.133583) scale(0.2 -0.2)">
       <defs>
        <path id="DejaVuSans-34" d="M 2419 4116 
L 825 1625 
L 2419 1625 
L 2419 4116 
z
M 2253 4666 
L 3047 4666 
L 3047 1625 
L 3713 1625 
L 3713 1100 
L 3047 1100 
L 3047 0 
L 2419 0 
L 2419 1100 
L 313 1100 
L 313 1709 
L 2253 4666 
z
" transform="scale(0.015625)"/>
       </defs>
       <use xlink:href="#DejaVuSans-30"/>
       <use xlink:href="#DejaVuSans-2e" x="63.623047"/>
       <use xlink:href="#DejaVuSans-34" x="95.410156"/>
      </g>
     </g>
    </g>
    <g id="ytick_4">
     <g id="line2d_19">
      <path d="M 71.298125 226.78343 
L 517.698125 226.78343 
" clip-path="url(#pec1d3000de)" style="fill: none; stroke: #b0b0b0; stroke-width: 0.8; stroke-linecap: square"/>
     </g>
     <g id="line2d_20">
      <g>
       <use xlink:href="#m50c8b83477" x="71.298125" y="226.78343" style="stroke: #000000; stroke-width: 0.8"/>
      </g>
     </g>
     <g id="text_4">
      <!-- 0.6 -->
      <g transform="translate(32.491875 234.381868) scale(0.2 -0.2)">
       <defs>
        <path id="DejaVuSans-36" d="M 2113 2584 
Q 1688 2584 1439 2293 
Q 1191 2003 1191 1497 
Q 1191 994 1439 701 
Q 1688 409 2113 409 
Q 2538 409 2786 701 
Q 3034 994 3034 1497 
Q 3034 2003 2786 2293 
Q 2538 2584 2113 2584 
z
M 3366 4563 
L 3366 3988 
Q 3128 4100 2886 4159 
Q 2644 4219 2406 4219 
Q 1781 4219 1451 3797 
Q 1122 3375 1075 2522 
Q 1259 2794 1537 2939 
Q 1816 3084 2150 3084 
Q 2853 3084 3261 2657 
Q 3669 2231 3669 1497 
Q 3669 778 3244 343 
Q 2819 -91 2113 -91 
Q 1303 -91 875 529 
Q 447 1150 447 2328 
Q 447 3434 972 4092 
Q 1497 4750 2381 4750 
Q 2619 4750 2861 4703 
Q 3103 4656 3366 4563 
z
" transform="scale(0.015625)"/>
       </defs>
       <use xlink:href="#DejaVuSans-30"/>
       <use xlink:href="#DejaVuSans-2e" x="63.623047"/>
       <use xlink:href="#DejaVuSans-36" x="95.410156"/>
      </g>
     </g>
    </g>
    <g id="ytick_5">
     <g id="line2d_21">
      <path d="M 71.298125 170.031715 
L 517.698125 170.031715 
" clip-path="url(#pec1d3000de)" style="fill: none; stroke: #b0b0b0; stroke-width: 0.8; stroke-linecap: square"/>
     </g>
     <g id="line2d_22">
      <g>
       <use xlink:href="#m50c8b83477" x="71.298125" y="170.031715" style="stroke: #000000; stroke-width: 0.8"/>
      </g>
     </g>
     <g id="text_5">
      <!-- 0.8 -->
      <g transform="translate(32.491875 177.630153) scale(0.2 -0.2)">
       <defs>
        <path id="DejaVuSans-38" d="M 2034 2216 
Q 1584 2216 1326 1975 
Q 1069 1734 1069 1313 
Q 1069 891 1326 650 
Q 1584 409 2034 409 
Q 2484 409 2743 651 
Q 3003 894 3003 1313 
Q 3003 1734 2745 1975 
Q 2488 2216 2034 2216 
z
M 1403 2484 
Q 997 2584 770 2862 
Q 544 3141 544 3541 
Q 544 4100 942 4425 
Q 1341 4750 2034 4750 
Q 2731 4750 3128 4425 
Q 3525 4100 3525 3541 
Q 3525 3141 3298 2862 
Q 3072 2584 2669 2484 
Q 3125 2378 3379 2068 
Q 3634 1759 3634 1313 
Q 3634 634 3220 271 
Q 2806 -91 2034 -91 
Q 1263 -91 848 271 
Q 434 634 434 1313 
Q 434 1759 690 2068 
Q 947 2378 1403 2484 
z
M 1172 3481 
Q 1172 3119 1398 2916 
Q 1625 2713 2034 2713 
Q 2441 2713 2670 2916 
Q 2900 3119 2900 3481 
Q 2900 3844 2670 4047 
Q 2441 4250 2034 4250 
Q 1625 4250 1398 4047 
Q 1172 3844 1172 3481 
z
" transform="scale(0.015625)"/>
       </defs>
       <use xlink:href="#DejaVuSans-30"/>
       <use xlink:href="#DejaVuSans-2e" x="63.623047"/>
       <use xlink:href="#DejaVuSans-38" x="95.410156"/>
      </g>
     </g>
    </g>
    <g id="ytick_6">
     <g id="line2d_23">
      <path d="M 71.298125 113.28 
L 517.698125 113.28 
" clip-path="url(#pec1d3000de)" style="fill: none; stroke: #b0b0b0; stroke-width: 0.8; stroke-linecap: square"/>
     </g>
     <g id="line2d_24">
      <g>
       <use xlink:href="#m50c8b83477" x="71.298125" y="113.28" style="stroke: #000000; stroke-width: 0.8"/>
      </g>
     </g>
     <g id="text_6">
      <!-- 1.0 -->
      <g transform="translate(32.491875 120.878437) scale(0.2 -0.2)">
       <defs>
        <path id="DejaVuSans-31" d="M 794 531 
L 1825 531 
L 1825 4091 
L 703 3866 
L 703 4441 
L 1819 4666 
L 2450 4666 
L 2450 531 
L 3481 531 
L 3481 0 
L 794 0 
L 794 531 
z
" transform="scale(0.015625)"/>
       </defs>
       <use xlink:href="#DejaVuSans-31"/>
       <use xlink:href="#DejaVuSans-2e" x="63.623047"/>
       <use xlink:href="#DejaVuSans-30" x="95.410156"/>
      </g>
     </g>
    </g>
    <g id="text_7">
     <!-- $M$ -->
     <g transform="translate(23.916563 266.85) rotate(-90) scale(0.22 -0.22)">
      <defs>
       <path id="DejaVuSans-Oblique-4d" d="M 1081 4666 
L 2028 4666 
L 2572 1522 
L 4378 4666 
L 5350 4666 
L 4441 0 
L 3828 0 
L 4622 4091 
L 2791 897 
L 2175 897 
L 1581 4103 
L 788 0 
L 172 0 
L 1081 4666 
z
" transform="scale(0.015625)"/>
      </defs>
      <use xlink:href="#DejaVuSans-Oblique-4d" transform="translate(0 0.09375)"/>
     </g>
    </g>
   </g>
   <g id="line2d_25">
    <path d="M 91.589034 401.28 
L 162.607216 371.351926 
L 193.04358 358.264669 
L 219.015943 346.850196 
L 241.741761 336.608214 
L 262.03267 327.208428 
L 280.294489 318.496472 
L 296.527216 310.512924 
L 311.948307 302.683174 
L 326.151943 295.225431 
L 339.543943 287.943335 
L 351.718489 281.080917 
L 363.487216 274.195232 
L 374.038489 267.78172 
L 384.589761 261.107435 
L 394.329398 254.680871 
L 403.663216 248.243524 
L 412.185398 242.08426 
L 419.895943 236.231456 
L 426.794852 230.714621 
L 432.882125 225.570362 
L 438.157761 220.846917 
L 443.02758 216.211437 
L 447.49158 211.673002 
L 451.549761 207.251192 
L 455.607943 202.486318 
L 459.260307 197.846014 
L 462.506852 193.391572 
L 465.753398 188.578176 
L 468.999943 183.354748 
L 472.246489 177.668793 
L 475.087216 172.271989 
L 477.927943 166.445858 
L 480.76867 160.158903 
L 483.609398 153.385586 
L 486.855943 145.026058 
L 490.102489 135.996009 
L 493.349034 126.302816 
L 497.001398 114.634663 
L 497.407216 113.28 
L 497.407216 113.28 
" clip-path="url(#pec1d3000de)" style="fill: none; stroke: #6240d0; stroke-width: 2; stroke-linecap: square"/>
   </g>
   <g id="line2d_26">
    <path d="M 91.589034 397.432005 
L 92.60358 396.645145 
L 149.418125 374.468176 
L 179.854489 362.333399 
L 204.20358 352.389114 
L 224.494489 343.885222 
L 242.756307 336.018952 
L 261.018125 327.90783 
L 277.250852 320.452984 
L 291.454489 313.707274 
L 305.658125 306.719928 
L 317.83267 300.509445 
L 330.007216 294.064923 
L 342.181761 287.352682 
L 352.327216 281.525161 
L 362.47267 275.455172 
L 372.618125 269.109734 
L 380.734489 263.808398 
L 388.850852 258.280806 
L 396.967216 252.498083 
L 405.08358 246.424992 
L 413.199943 240.018515 
L 419.287216 234.964214 
L 425.374489 229.667023 
L 431.461761 224.094105 
L 437.549034 218.205328 
L 443.636307 211.952221 
L 449.72358 205.274484 
L 453.781761 200.549135 
L 457.839943 195.571836 
L 461.898125 190.307039 
L 465.956307 184.710662 
L 470.014489 178.727423 
L 474.07267 172.286316 
L 478.130852 165.293682 
L 482.189034 157.622397 
L 484.218125 153.483052 
L 488.276307 144.460218 
L 492.334489 134.516773 
L 494.36358 128.306135 
L 496.39267 125.681359 
L 497.407216 113.28 
L 497.407216 113.28 
" clip-path="url(#pec1d3000de)" style="fill: none; stroke-dasharray: 2.5,4.125; stroke-dashoffset: 0; stroke: #008000; stroke-width: 2.5"/>
    <defs>
     <path id="m000f78a64a" d="M 0 2.5 
C 0.663008 2.5 1.29895 2.236584 1.767767 1.767767 
C 2.236584 1.29895 2.5 0.663008 2.5 0 
C 2.5 -0.663008 2.236584 -1.29895 1.767767 -1.767767 
C 1.29895 -2.236584 0.663008 -2.5 0 -2.5 
C -0.663008 -2.5 -1.29895 -2.236584 -1.767767 -1.767767 
C -2.236584 -1.29895 -2.5 -0.663008 -2.5 0 
C -2.5 0.663008 -2.236584 1.29895 -1.767767 1.767767 
C -1.29895 2.236584 -0.663008 2.5 0 2.5 
z
" style="stroke: #008000"/>
    </defs>
    <g clip-path="url(#pec1d3000de)">
     <use xlink:href="#m000f78a64a" x="91.589034" y="397.432005" style="fill: #ff0000; stroke: #008000"/>
     <use xlink:href="#m000f78a64a" x="110.865398" y="389.551435" style="fill: #ff0000; stroke: #008000"/>
     <use xlink:href="#m000f78a64a" x="131.156307" y="381.64039" style="fill: #ff0000; stroke: #008000"/>
     <use xlink:href="#m000f78a64a" x="151.447216" y="373.667083" style="fill: #ff0000; stroke: #008000"/>
     <use xlink:href="#m000f78a64a" x="171.738125" y="365.596902" style="fill: #ff0000; stroke: #008000"/>
     <use xlink:href="#m000f78a64a" x="192.029034" y="357.392494" style="fill: #ff0000; stroke: #008000"/>
     <use xlink:href="#m000f78a64a" x="212.319943" y="349.01422" style="fill: #ff0000; stroke: #008000"/>
     <use xlink:href="#m000f78a64a" x="232.610852" y="340.416548" style="fill: #ff0000; stroke: #008000"/>
     <use xlink:href="#m000f78a64a" x="252.901761" y="331.545909" style="fill: #ff0000; stroke: #008000"/>
     <use xlink:href="#m000f78a64a" x="273.19267" y="322.340602" style="fill: #ff0000; stroke: #008000"/>
     <use xlink:href="#m000f78a64a" x="293.48358" y="312.724701" style="fill: #ff0000; stroke: #008000"/>
     <use xlink:href="#m000f78a64a" x="313.774489" y="302.604127" style="fill: #ff0000; stroke: #008000"/>
     <use xlink:href="#m000f78a64a" x="334.065398" y="291.859126" style="fill: #ff0000; stroke: #008000"/>
     <use xlink:href="#m000f78a64a" x="354.356307" y="280.331532" style="fill: #ff0000; stroke: #008000"/>
     <use xlink:href="#m000f78a64a" x="374.647216" y="267.80421" style="fill: #ff0000; stroke: #008000"/>
     <use xlink:href="#m000f78a64a" x="394.938125" y="253.96948" style="fill: #ff0000; stroke: #008000"/>
     <use xlink:href="#m000f78a64a" x="415.229034" y="238.358986" style="fill: #ff0000; stroke: #008000"/>
     <use xlink:href="#m000f78a64a" x="435.519943" y="220.206147" style="fill: #ff0000; stroke: #008000"/>
     <use xlink:href="#m000f78a64a" x="455.810852" y="198.094035" style="fill: #ff0000; stroke: #008000"/>
     <use xlink:href="#m000f78a64a" x="476.101761" y="168.865907" style="fill: #ff0000; stroke: #008000"/>
     <use xlink:href="#m000f78a64a" x="496.39267" y="125.681359" style="fill: #ff0000; stroke: #008000"/>
    </g>
   </g>
   <g id="line2d_27">
    <path d="M 497.407216 113.28 
" clip-path="url(#pec1d3000de)" style="fill: none; stroke: #1f77b4; stroke-width: 1.5; stroke-linecap: square"/>
    <defs>
     <path id="m9a59c28be3" d="M 0 2.5 
C 0.663008 2.5 1.29895 2.236584 1.767767 1.767767 
C 2.236584 1.29895 2.5 0.663008 2.5 0 
C 2.5 -0.663008 2.236584 -1.29895 1.767767 -1.767767 
C 1.29895 -2.236584 0.663008 -2.5 0 -2.5 
C -0.663008 -2.5 -1.29895 -2.236584 -1.767767 -1.767767 
C -2.236584 -1.29895 -2.5 -0.663008 -2.5 0 
C -2.5 0.663008 -2.236584 1.29895 -1.767767 1.767767 
C -1.29895 2.236584 -0.663008 2.5 0 2.5 
z
" style="stroke: #1f77b4"/>
    </defs>
    <g clip-path="url(#pec1d3000de)">
     <use xlink:href="#m9a59c28be3" x="497.407216" y="113.28" style="fill: #ff0000; stroke: #1f77b4"/>
    </g>
   </g>
   <g id="patch_3">
    <path d="M 71.298125 415.68 
L 71.298125 98.88 
" style="fill: none; stroke: #000000; stroke-width: 0.8; stroke-linejoin: miter; stroke-linecap: square"/>
   </g>
   <g id="patch_4">
    <path d="M 517.698125 415.68 
L 517.698125 98.88 
" style="fill: none; stroke: #000000; stroke-width: 0.8; stroke-linejoin: miter; stroke-linecap: square"/>
   </g>
   <g id="patch_5">
    <path d="M 71.298125 415.68 
L 517.698125 415.68 
" style="fill: none; stroke: #000000; stroke-width: 0.8; stroke-linejoin: miter; stroke-linecap: square"/>
   </g>
   <g id="patch_6">
    <path d="M 71.298125 98.88 
L 517.698125 98.88 
" style="fill: none; stroke: #000000; stroke-width: 0.8; stroke-linejoin: miter; stroke-linecap: square"/>
   </g>
  </g>
  <g id="axes_2">
   <g id="patch_7">
    <path d="M 629.298125 415.68 
L 1075.698125 415.68 
L 1075.698125 98.88 
L 629.298125 98.88 
z
" style="fill: #ffffff"/>
   </g>
   <g id="matplotlib.axis_3">
    <g id="xtick_7">
     <g id="line2d_28">
      <path d="M 649.589034 415.68 
L 649.589034 98.88 
" clip-path="url(#pa907812ed4)" style="fill: none; stroke: #b0b0b0; stroke-width: 0.8; stroke-linecap: square"/>
     </g>
     <g id="line2d_29">
      <g>
       <use xlink:href="#mf00a5328e5" x="649.589034" y="415.68" style="stroke: #000000; stroke-width: 0.8"/>
      </g>
     </g>
    </g>
    <g id="xtick_8">
     <g id="line2d_30">
      <path d="M 730.75267 415.68 
L 730.75267 98.88 
" clip-path="url(#pa907812ed4)" style="fill: none; stroke: #b0b0b0; stroke-width: 0.8; stroke-linecap: square"/>
     </g>
     <g id="line2d_31">
      <g>
       <use xlink:href="#mf00a5328e5" x="730.75267" y="415.68" style="stroke: #000000; stroke-width: 0.8"/>
      </g>
     </g>
    </g>
    <g id="xtick_9">
     <g id="line2d_32">
      <path d="M 811.916307 415.68 
L 811.916307 98.88 
" clip-path="url(#pa907812ed4)" style="fill: none; stroke: #b0b0b0; stroke-width: 0.8; stroke-linecap: square"/>
     </g>
     <g id="line2d_33">
      <g>
       <use xlink:href="#mf00a5328e5" x="811.916307" y="415.68" style="stroke: #000000; stroke-width: 0.8"/>
      </g>
     </g>
    </g>
    <g id="xtick_10">
     <g id="line2d_34">
      <path d="M 893.079943 415.68 
L 893.079943 98.88 
" clip-path="url(#pa907812ed4)" style="fill: none; stroke: #b0b0b0; stroke-width: 0.8; stroke-linecap: square"/>
     </g>
     <g id="line2d_35">
      <g>
       <use xlink:href="#mf00a5328e5" x="893.079943" y="415.68" style="stroke: #000000; stroke-width: 0.8"/>
      </g>
     </g>
    </g>
    <g id="xtick_11">
     <g id="line2d_36">
      <path d="M 974.24358 415.68 
L 974.24358 98.88 
" clip-path="url(#pa907812ed4)" style="fill: none; stroke: #b0b0b0; stroke-width: 0.8; stroke-linecap: square"/>
     </g>
     <g id="line2d_37">
      <g>
       <use xlink:href="#mf00a5328e5" x="974.24358" y="415.68" style="stroke: #000000; stroke-width: 0.8"/>
      </g>
     </g>
    </g>
    <g id="xtick_12">
     <g id="line2d_38">
      <path d="M 1055.407216 415.68 
L 1055.407216 98.88 
" clip-path="url(#pa907812ed4)" style="fill: none; stroke: #b0b0b0; stroke-width: 0.8; stroke-linecap: square"/>
     </g>
     <g id="line2d_39">
      <g>
       <use xlink:href="#mf00a5328e5" x="1055.407216" y="415.68" style="stroke: #000000; stroke-width: 0.8"/>
      </g>
     </g>
    </g>
   </g>
   <g id="matplotlib.axis_4">
    <g id="ytick_7">
     <g id="line2d_40">
      <path d="M 629.298125 360.527412 
L 1075.698125 360.527412 
" clip-path="url(#pa907812ed4)" style="fill: none; stroke: #b0b0b0; stroke-width: 0.8; stroke-linecap: square"/>
     </g>
     <g id="line2d_41">
      <g>
       <use xlink:href="#m50c8b83477" x="629.298125" y="360.527412" style="stroke: #000000; stroke-width: 0.8"/>
      </g>
     </g>
     <g id="text_8">
      <!-- 0.06 -->
      <g transform="translate(577.766875 368.125849) scale(0.2 -0.2)">
       <use xlink:href="#DejaVuSans-30"/>
       <use xlink:href="#DejaVuSans-2e" x="63.623047"/>
       <use xlink:href="#DejaVuSans-30" x="95.410156"/>
       <use xlink:href="#DejaVuSans-36" x="159.033203"/>
      </g>
     </g>
    </g>
    <g id="ytick_8">
     <g id="line2d_42">
      <path d="M 629.298125 286.04857 
L 1075.698125 286.04857 
" clip-path="url(#pa907812ed4)" style="fill: none; stroke: #b0b0b0; stroke-width: 0.8; stroke-linecap: square"/>
     </g>
     <g id="line2d_43">
      <g>
       <use xlink:href="#m50c8b83477" x="629.298125" y="286.04857" style="stroke: #000000; stroke-width: 0.8"/>
      </g>
     </g>
     <g id="text_9">
      <!-- 0.07 -->
      <g transform="translate(577.766875 293.647007) scale(0.2 -0.2)">
       <defs>
        <path id="DejaVuSans-37" d="M 525 4666 
L 3525 4666 
L 3525 4397 
L 1831 0 
L 1172 0 
L 2766 4134 
L 525 4134 
L 525 4666 
z
" transform="scale(0.015625)"/>
       </defs>
       <use xlink:href="#DejaVuSans-30"/>
       <use xlink:href="#DejaVuSans-2e" x="63.623047"/>
       <use xlink:href="#DejaVuSans-30" x="95.410156"/>
       <use xlink:href="#DejaVuSans-37" x="159.033203"/>
      </g>
     </g>
    </g>
    <g id="ytick_9">
     <g id="line2d_44">
      <path d="M 629.298125 211.569728 
L 1075.698125 211.569728 
" clip-path="url(#pa907812ed4)" style="fill: none; stroke: #b0b0b0; stroke-width: 0.8; stroke-linecap: square"/>
     </g>
     <g id="line2d_45">
      <g>
       <use xlink:href="#m50c8b83477" x="629.298125" y="211.569728" style="stroke: #000000; stroke-width: 0.8"/>
      </g>
     </g>
     <g id="text_10">
      <!-- 0.08 -->
      <g transform="translate(577.766875 219.168165) scale(0.2 -0.2)">
       <use xlink:href="#DejaVuSans-30"/>
       <use xlink:href="#DejaVuSans-2e" x="63.623047"/>
       <use xlink:href="#DejaVuSans-30" x="95.410156"/>
       <use xlink:href="#DejaVuSans-38" x="159.033203"/>
      </g>
     </g>
    </g>
    <g id="ytick_10">
     <g id="line2d_46">
      <path d="M 629.298125 137.090886 
L 1075.698125 137.090886 
" clip-path="url(#pa907812ed4)" style="fill: none; stroke: #b0b0b0; stroke-width: 0.8; stroke-linecap: square"/>
     </g>
     <g id="line2d_47">
      <g>
       <use xlink:href="#m50c8b83477" x="629.298125" y="137.090886" style="stroke: #000000; stroke-width: 0.8"/>
      </g>
     </g>
     <g id="text_11">
      <!-- 0.09 -->
      <g transform="translate(577.766875 144.689323) scale(0.2 -0.2)">
       <defs>
        <path id="DejaVuSans-39" d="M 703 97 
L 703 672 
Q 941 559 1184 500 
Q 1428 441 1663 441 
Q 2288 441 2617 861 
Q 2947 1281 2994 2138 
Q 2813 1869 2534 1725 
Q 2256 1581 1919 1581 
Q 1219 1581 811 2004 
Q 403 2428 403 3163 
Q 403 3881 828 4315 
Q 1253 4750 1959 4750 
Q 2769 4750 3195 4129 
Q 3622 3509 3622 2328 
Q 3622 1225 3098 567 
Q 2575 -91 1691 -91 
Q 1453 -91 1209 -44 
Q 966 3 703 97 
z
M 1959 2075 
Q 2384 2075 2632 2365 
Q 2881 2656 2881 3163 
Q 2881 3666 2632 3958 
Q 2384 4250 1959 4250 
Q 1534 4250 1286 3958 
Q 1038 3666 1038 3163 
Q 1038 2656 1286 2365 
Q 1534 2075 1959 2075 
z
" transform="scale(0.015625)"/>
       </defs>
       <use xlink:href="#DejaVuSans-30"/>
       <use xlink:href="#DejaVuSans-2e" x="63.623047"/>
       <use xlink:href="#DejaVuSans-30" x="95.410156"/>
       <use xlink:href="#DejaVuSans-39" x="159.033203"/>
      </g>
     </g>
    </g>
    <g id="text_12">
     <!-- $N$ -->
     <g transform="translate(569.191563 265.53) rotate(-90) scale(0.22 -0.22)">
      <defs>
       <path id="DejaVuSans-Oblique-4e" d="M 1081 4666 
L 1931 4666 
L 3219 666 
L 4000 4666 
L 4616 4666 
L 3706 0 
L 2853 0 
L 1569 4025 
L 788 0 
L 172 0 
L 1081 4666 
z
" transform="scale(0.015625)"/>
      </defs>
      <use xlink:href="#DejaVuSans-Oblique-4e" transform="translate(0 0.09375)"/>
     </g>
    </g>
   </g>
   <g id="line2d_48">
    <path d="M 649.589034 113.362672 
L 658.922852 113.28 
L 670.69158 113.38576 
L 682.866125 113.781987 
L 694.229034 114.409844 
L 704.780307 115.213471 
L 716.143216 116.320226 
L 727.506125 117.679465 
L 737.65158 119.108714 
L 748.60867 120.885035 
L 758.754125 122.74775 
L 769.305398 124.912106 
L 780.262489 127.410871 
L 789.596307 129.744293 
L 799.741761 132.500755 
L 809.481398 135.36819 
L 819.626852 138.592379 
L 829.366489 141.922328 
L 838.700307 145.337183 
L 848.034125 148.978454 
L 857.773761 153.028613 
L 866.701761 156.975992 
L 875.629761 161.156489 
L 884.557761 165.582022 
L 893.079943 170.045539 
L 901.602125 174.754091 
L 910.124307 179.72183 
L 918.646489 184.964396 
L 926.357034 189.957457 
L 934.06758 195.204492 
L 941.778125 200.723374 
L 949.082852 206.222147 
L 955.981761 211.679957 
L 962.88067 217.423765 
L 969.373761 223.127355 
L 975.461034 228.781043 
L 980.73667 233.967005 
L 985.606489 239.039014 
L 990.070489 243.978451 
L 994.534489 249.254532 
L 998.59267 254.404744 
L 1002.245034 259.38291 
L 1005.897398 264.746876 
L 1009.143943 269.88964 
L 1012.390489 275.437569 
L 1015.637034 281.442798 
L 1018.88358 287.959697 
L 1022.130125 295.039656 
L 1025.37667 302.729596 
L 1028.623216 311.066013 
L 1031.869761 320.06976 
L 1035.116307 329.744562 
L 1038.76867 341.398266 
L 1042.826852 355.209623 
L 1047.290852 371.241193 
L 1054.189761 396.972889 
L 1055.407216 401.28 
L 1055.407216 401.28 
" clip-path="url(#pa907812ed4)" style="fill: none; stroke: #6240d0; stroke-width: 2; stroke-linecap: square"/>
   </g>
   <g id="line2d_49">
    <path d="M 649.589034 113.36302 
L 658.719943 113.440063 
L 668.865398 113.715003 
L 679.010852 114.187067 
L 689.156307 114.856586 
L 699.301761 115.724596 
L 709.447216 116.792733 
L 719.59267 118.063195 
L 729.738125 119.53863 
L 739.88358 121.222008 
L 750.029034 123.116588 
L 760.174489 125.226043 
L 770.319943 127.554711 
L 780.465398 130.107754 
L 790.610852 132.891042 
L 800.756307 135.910873 
L 810.901761 139.17403 
L 821.047216 142.688325 
L 831.19267 146.463054 
L 841.338125 150.508799 
L 851.48358 154.837123 
L 861.629034 159.460946 
L 869.745398 163.38266 
L 877.861761 167.511419 
L 885.978125 171.856571 
L 894.094489 176.42876 
L 902.210852 181.240344 
L 910.327216 186.305334 
L 918.44358 191.639136 
L 926.559943 197.258973 
L 934.676307 203.184853 
L 942.79267 209.440091 
L 950.909034 216.051631 
L 956.996307 221.263186 
L 963.08358 226.709291 
L 969.170852 232.408391 
L 975.258125 238.381113 
L 981.345398 244.651436 
L 987.43267 251.248751 
L 993.519943 258.208782 
L 999.607216 265.573888 
L 1005.694489 273.395274 
L 1011.781761 281.737239 
L 1015.839943 287.628222 
L 1019.898125 293.818572 
L 1023.956307 300.3466 
L 1028.014489 307.260505 
L 1032.07267 314.620888 
L 1036.130852 322.50519 
L 1040.189034 331.017878 
L 1044.247216 340.293338 
L 1048.305398 350.428524 
L 1050.334489 356.367362 
L 1052.36358 359.430495 
L 1055.407216 379.374368 
L 1055.407216 379.374368 
" clip-path="url(#pa907812ed4)" style="fill: none; stroke-dasharray: 2.5,4.125; stroke-dashoffset: 0; stroke: #008000; stroke-width: 2.5"/>
    <g clip-path="url(#pa907812ed4)">
     <use xlink:href="#m000f78a64a" x="649.589034" y="113.36302" style="fill: #ff0000; stroke: #008000"/>
     <use xlink:href="#m000f78a64a" x="668.865398" y="113.715003" style="fill: #ff0000; stroke: #008000"/>
     <use xlink:href="#m000f78a64a" x="689.156307" y="114.856586" style="fill: #ff0000; stroke: #008000"/>
     <use xlink:href="#m000f78a64a" x="709.447216" y="116.792733" style="fill: #ff0000; stroke: #008000"/>
     <use xlink:href="#m000f78a64a" x="729.738125" y="119.53863" style="fill: #ff0000; stroke: #008000"/>
     <use xlink:href="#m000f78a64a" x="750.029034" y="123.116588" style="fill: #ff0000; stroke: #008000"/>
     <use xlink:href="#m000f78a64a" x="770.319943" y="127.554711" style="fill: #ff0000; stroke: #008000"/>
     <use xlink:href="#m000f78a64a" x="790.610852" y="132.891042" style="fill: #ff0000; stroke: #008000"/>
     <use xlink:href="#m000f78a64a" x="810.901761" y="139.17403" style="fill: #ff0000; stroke: #008000"/>
     <use xlink:href="#m000f78a64a" x="831.19267" y="146.463054" style="fill: #ff0000; stroke: #008000"/>
     <use xlink:href="#m000f78a64a" x="851.48358" y="154.837123" style="fill: #ff0000; stroke: #008000"/>
     <use xlink:href="#m000f78a64a" x="871.774489" y="164.395091" style="fill: #ff0000; stroke: #008000"/>
     <use xlink:href="#m000f78a64a" x="892.065398" y="175.263783" style="fill: #ff0000; stroke: #008000"/>
     <use xlink:href="#m000f78a64a" x="912.356307" y="187.612949" style="fill: #ff0000; stroke: #008000"/>
     <use xlink:href="#m000f78a64a" x="932.647216" y="201.673474" style="fill: #ff0000; stroke: #008000"/>
     <use xlink:href="#m000f78a64a" x="952.938125" y="217.763805" style="fill: #ff0000; stroke: #008000"/>
     <use xlink:href="#m000f78a64a" x="973.229034" y="236.358415" style="fill: #ff0000; stroke: #008000"/>
     <use xlink:href="#m000f78a64a" x="993.519943" y="258.208782" style="fill: #ff0000; stroke: #008000"/>
     <use xlink:href="#m000f78a64a" x="1013.810852" y="284.647414" style="fill: #ff0000; stroke: #008000"/>
     <use xlink:href="#m000f78a64a" x="1034.101761" y="318.491777" style="fill: #ff0000; stroke: #008000"/>
     <use xlink:href="#m000f78a64a" x="1054.39267" y="372.72641" style="fill: #ff0000; stroke: #008000"/>
    </g>
   </g>
   <g id="line2d_50">
    <path d="M 1055.407216 379.374368 
" clip-path="url(#pa907812ed4)" style="fill: none; stroke: #1f77b4; stroke-width: 1.5; stroke-linecap: square"/>
    <g clip-path="url(#pa907812ed4)">
     <use xlink:href="#m9a59c28be3" x="1055.407216" y="379.374368" style="fill: #ff0000; stroke: #1f77b4"/>
    </g>
   </g>
   <g id="patch_8">
    <path d="M 629.298125 415.68 
L 629.298125 98.88 
" style="fill: none; stroke: #000000; stroke-width: 0.8; stroke-linejoin: miter; stroke-linecap: square"/>
   </g>
   <g id="patch_9">
    <path d="M 1075.698125 415.68 
L 1075.698125 98.88 
" style="fill: none; stroke: #000000; stroke-width: 0.8; stroke-linejoin: miter; stroke-linecap: square"/>
   </g>
   <g id="patch_10">
    <path d="M 629.298125 415.68 
L 1075.698125 415.68 
" style="fill: none; stroke: #000000; stroke-width: 0.8; stroke-linejoin: miter; stroke-linecap: square"/>
   </g>
   <g id="patch_11">
    <path d="M 629.298125 98.88 
L 1075.698125 98.88 
" style="fill: none; stroke: #000000; stroke-width: 0.8; stroke-linejoin: miter; stroke-linecap: square"/>
   </g>
  </g>
  <g id="axes_3">
   <g id="patch_12">
    <path d="M 71.298125 764.16 
L 517.698125 764.16 
L 517.698125 447.36 
L 71.298125 447.36 
z
" style="fill: #ffffff"/>
   </g>
   <g id="matplotlib.axis_5">
    <g id="xtick_13">
     <g id="line2d_51">
      <path d="M 91.589034 764.16 
L 91.589034 447.36 
" clip-path="url(#pc31e78323f)" style="fill: none; stroke: #b0b0b0; stroke-width: 0.8; stroke-linecap: square"/>
     </g>
     <g id="line2d_52">
      <g>
       <use xlink:href="#mf00a5328e5" x="91.589034" y="764.16" style="stroke: #000000; stroke-width: 0.8"/>
      </g>
     </g>
     <g id="text_13">
      <!-- 0 -->
      <g transform="translate(85.226534 786.356875) scale(0.2 -0.2)">
       <use xlink:href="#DejaVuSans-30"/>
      </g>
     </g>
    </g>
    <g id="xtick_14">
     <g id="line2d_53">
      <path d="M 172.75267 764.16 
L 172.75267 447.36 
" clip-path="url(#pc31e78323f)" style="fill: none; stroke: #b0b0b0; stroke-width: 0.8; stroke-linecap: square"/>
     </g>
     <g id="line2d_54">
      <g>
       <use xlink:href="#mf00a5328e5" x="172.75267" y="764.16" style="stroke: #000000; stroke-width: 0.8"/>
      </g>
     </g>
     <g id="text_14">
      <!-- 5 -->
      <g transform="translate(166.39017 786.356875) scale(0.2 -0.2)">
       <defs>
        <path id="DejaVuSans-35" d="M 691 4666 
L 3169 4666 
L 3169 4134 
L 1269 4134 
L 1269 2991 
Q 1406 3038 1543 3061 
Q 1681 3084 1819 3084 
Q 2600 3084 3056 2656 
Q 3513 2228 3513 1497 
Q 3513 744 3044 326 
Q 2575 -91 1722 -91 
Q 1428 -91 1123 -41 
Q 819 9 494 109 
L 494 744 
Q 775 591 1075 516 
Q 1375 441 1709 441 
Q 2250 441 2565 725 
Q 2881 1009 2881 1497 
Q 2881 1984 2565 2268 
Q 2250 2553 1709 2553 
Q 1456 2553 1204 2497 
Q 953 2441 691 2322 
L 691 4666 
z
" transform="scale(0.015625)"/>
       </defs>
       <use xlink:href="#DejaVuSans-35"/>
      </g>
     </g>
    </g>
    <g id="xtick_15">
     <g id="line2d_55">
      <path d="M 253.916307 764.16 
L 253.916307 447.36 
" clip-path="url(#pc31e78323f)" style="fill: none; stroke: #b0b0b0; stroke-width: 0.8; stroke-linecap: square"/>
     </g>
     <g id="line2d_56">
      <g>
       <use xlink:href="#mf00a5328e5" x="253.916307" y="764.16" style="stroke: #000000; stroke-width: 0.8"/>
      </g>
     </g>
     <g id="text_15">
      <!-- 10 -->
      <g transform="translate(241.191307 786.356875) scale(0.2 -0.2)">
       <use xlink:href="#DejaVuSans-31"/>
       <use xlink:href="#DejaVuSans-30" x="63.623047"/>
      </g>
     </g>
    </g>
    <g id="xtick_16">
     <g id="line2d_57">
      <path d="M 335.079943 764.16 
L 335.079943 447.36 
" clip-path="url(#pc31e78323f)" style="fill: none; stroke: #b0b0b0; stroke-width: 0.8; stroke-linecap: square"/>
     </g>
     <g id="line2d_58">
      <g>
       <use xlink:href="#mf00a5328e5" x="335.079943" y="764.16" style="stroke: #000000; stroke-width: 0.8"/>
      </g>
     </g>
     <g id="text_16">
      <!-- 15 -->
      <g transform="translate(322.354943 786.356875) scale(0.2 -0.2)">
       <use xlink:href="#DejaVuSans-31"/>
       <use xlink:href="#DejaVuSans-35" x="63.623047"/>
      </g>
     </g>
    </g>
    <g id="xtick_17">
     <g id="line2d_59">
      <path d="M 416.24358 764.16 
L 416.24358 447.36 
" clip-path="url(#pc31e78323f)" style="fill: none; stroke: #b0b0b0; stroke-width: 0.8; stroke-linecap: square"/>
     </g>
     <g id="line2d_60">
      <g>
       <use xlink:href="#mf00a5328e5" x="416.24358" y="764.16" style="stroke: #000000; stroke-width: 0.8"/>
      </g>
     </g>
     <g id="text_17">
      <!-- 20 -->
      <g transform="translate(403.51858 786.356875) scale(0.2 -0.2)">
       <use xlink:href="#DejaVuSans-32"/>
       <use xlink:href="#DejaVuSans-30" x="63.623047"/>
      </g>
     </g>
    </g>
    <g id="xtick_18">
     <g id="line2d_61">
      <path d="M 497.407216 764.16 
L 497.407216 447.36 
" clip-path="url(#pc31e78323f)" style="fill: none; stroke: #b0b0b0; stroke-width: 0.8; stroke-linecap: square"/>
     </g>
     <g id="line2d_62">
      <g>
       <use xlink:href="#mf00a5328e5" x="497.407216" y="764.16" style="stroke: #000000; stroke-width: 0.8"/>
      </g>
     </g>
     <g id="text_18">
      <!-- 25 -->
      <g transform="translate(484.682216 786.356875) scale(0.2 -0.2)">
       <use xlink:href="#DejaVuSans-32"/>
       <use xlink:href="#DejaVuSans-35" x="63.623047"/>
      </g>
     </g>
    </g>
    <g id="text_19">
     <!-- x $[m]$ -->
     <g transform="translate(265.128125 811.232812) scale(0.22 -0.22)">
      <defs>
       <path id="DejaVuSans-78" d="M 3513 3500 
L 2247 1797 
L 3578 0 
L 2900 0 
L 1881 1375 
L 863 0 
L 184 0 
L 1544 1831 
L 300 3500 
L 978 3500 
L 1906 2253 
L 2834 3500 
L 3513 3500 
z
" transform="scale(0.015625)"/>
       <path id="DejaVuSans-20" transform="scale(0.015625)"/>
       <path id="DejaVuSans-5b" d="M 550 4863 
L 1875 4863 
L 1875 4416 
L 1125 4416 
L 1125 -397 
L 1875 -397 
L 1875 -844 
L 550 -844 
L 550 4863 
z
" transform="scale(0.015625)"/>
       <path id="DejaVuSans-Oblique-6d" d="M 5747 2113 
L 5338 0 
L 4763 0 
L 5166 2094 
Q 5191 2228 5203 2325 
Q 5216 2422 5216 2491 
Q 5216 2772 5059 2928 
Q 4903 3084 4622 3084 
Q 4203 3084 3875 2770 
Q 3547 2456 3450 1953 
L 3066 0 
L 2491 0 
L 2900 2094 
Q 2925 2209 2937 2307 
Q 2950 2406 2950 2484 
Q 2950 2769 2794 2926 
Q 2638 3084 2363 3084 
Q 1938 3084 1609 2770 
Q 1281 2456 1184 1953 
L 800 0 
L 225 0 
L 909 3500 
L 1484 3500 
L 1375 2956 
Q 1609 3263 1923 3423 
Q 2238 3584 2597 3584 
Q 2978 3584 3223 3384 
Q 3469 3184 3519 2828 
Q 3781 3197 4126 3390 
Q 4472 3584 4856 3584 
Q 5306 3584 5551 3325 
Q 5797 3066 5797 2591 
Q 5797 2488 5784 2364 
Q 5772 2241 5747 2113 
z
" transform="scale(0.015625)"/>
       <path id="DejaVuSans-5d" d="M 1947 4863 
L 1947 -844 
L 622 -844 
L 622 -397 
L 1369 -397 
L 1369 4416 
L 622 4416 
L 622 4863 
L 1947 4863 
z
" transform="scale(0.015625)"/>
      </defs>
      <use xlink:href="#DejaVuSans-78" transform="translate(0 0.015625)"/>
      <use xlink:href="#DejaVuSans-20" transform="translate(59.179688 0.015625)"/>
      <use xlink:href="#DejaVuSans-5b" transform="translate(90.966797 0.015625)"/>
      <use xlink:href="#DejaVuSans-Oblique-6d" transform="translate(129.980469 0.015625)"/>
      <use xlink:href="#DejaVuSans-5d" transform="translate(227.392578 0.015625)"/>
     </g>
    </g>
   </g>
   <g id="matplotlib.axis_6">
    <g id="ytick_11">
     <g id="line2d_63">
      <path d="M 71.298125 763.734409 
L 517.698125 763.734409 
" clip-path="url(#pc31e78323f)" style="fill: none; stroke: #b0b0b0; stroke-width: 0.8; stroke-linecap: square"/>
     </g>
     <g id="line2d_64">
      <g>
       <use xlink:href="#m50c8b83477" x="71.298125" y="763.734409" style="stroke: #000000; stroke-width: 0.8"/>
      </g>
     </g>
     <g id="text_20">
      <!-- 50 -->
      <g transform="translate(38.848125 771.332846) scale(0.2 -0.2)">
       <use xlink:href="#DejaVuSans-35"/>
       <use xlink:href="#DejaVuSans-30" x="63.623047"/>
      </g>
     </g>
    </g>
    <g id="ytick_12">
     <g id="line2d_65">
      <path d="M 71.298125 715.088895 
L 517.698125 715.088895 
" clip-path="url(#pc31e78323f)" style="fill: none; stroke: #b0b0b0; stroke-width: 0.8; stroke-linecap: square"/>
     </g>
     <g id="line2d_66">
      <g>
       <use xlink:href="#m50c8b83477" x="71.298125" y="715.088895" style="stroke: #000000; stroke-width: 0.8"/>
      </g>
     </g>
     <g id="text_21">
      <!-- 52 -->
      <g transform="translate(38.848125 722.687332) scale(0.2 -0.2)">
       <use xlink:href="#DejaVuSans-35"/>
       <use xlink:href="#DejaVuSans-32" x="63.623047"/>
      </g>
     </g>
    </g>
    <g id="ytick_13">
     <g id="line2d_67">
      <path d="M 71.298125 666.443381 
L 517.698125 666.443381 
" clip-path="url(#pc31e78323f)" style="fill: none; stroke: #b0b0b0; stroke-width: 0.8; stroke-linecap: square"/>
     </g>
     <g id="line2d_68">
      <g>
       <use xlink:href="#m50c8b83477" x="71.298125" y="666.443381" style="stroke: #000000; stroke-width: 0.8"/>
      </g>
     </g>
     <g id="text_22">
      <!-- 54 -->
      <g transform="translate(38.848125 674.041818) scale(0.2 -0.2)">
       <use xlink:href="#DejaVuSans-35"/>
       <use xlink:href="#DejaVuSans-34" x="63.623047"/>
      </g>
     </g>
    </g>
    <g id="ytick_14">
     <g id="line2d_69">
      <path d="M 71.298125 617.797867 
L 517.698125 617.797867 
" clip-path="url(#pc31e78323f)" style="fill: none; stroke: #b0b0b0; stroke-width: 0.8; stroke-linecap: square"/>
     </g>
     <g id="line2d_70">
      <g>
       <use xlink:href="#m50c8b83477" x="71.298125" y="617.797867" style="stroke: #000000; stroke-width: 0.8"/>
      </g>
     </g>
     <g id="text_23">
      <!-- 56 -->
      <g transform="translate(38.848125 625.396304) scale(0.2 -0.2)">
       <use xlink:href="#DejaVuSans-35"/>
       <use xlink:href="#DejaVuSans-36" x="63.623047"/>
      </g>
     </g>
    </g>
    <g id="ytick_15">
     <g id="line2d_71">
      <path d="M 71.298125 569.152353 
L 517.698125 569.152353 
" clip-path="url(#pc31e78323f)" style="fill: none; stroke: #b0b0b0; stroke-width: 0.8; stroke-linecap: square"/>
     </g>
     <g id="line2d_72">
      <g>
       <use xlink:href="#m50c8b83477" x="71.298125" y="569.152353" style="stroke: #000000; stroke-width: 0.8"/>
      </g>
     </g>
     <g id="text_24">
      <!-- 58 -->
      <g transform="translate(38.848125 576.75079) scale(0.2 -0.2)">
       <use xlink:href="#DejaVuSans-35"/>
       <use xlink:href="#DejaVuSans-38" x="63.623047"/>
      </g>
     </g>
    </g>
    <g id="ytick_16">
     <g id="line2d_73">
      <path d="M 71.298125 520.506839 
L 517.698125 520.506839 
" clip-path="url(#pc31e78323f)" style="fill: none; stroke: #b0b0b0; stroke-width: 0.8; stroke-linecap: square"/>
     </g>
     <g id="line2d_74">
      <g>
       <use xlink:href="#m50c8b83477" x="71.298125" y="520.506839" style="stroke: #000000; stroke-width: 0.8"/>
      </g>
     </g>
     <g id="text_25">
      <!-- 60 -->
      <g transform="translate(38.848125 528.105276) scale(0.2 -0.2)">
       <use xlink:href="#DejaVuSans-36"/>
       <use xlink:href="#DejaVuSans-30" x="63.623047"/>
      </g>
     </g>
    </g>
    <g id="ytick_17">
     <g id="line2d_75">
      <path d="M 71.298125 471.861325 
L 517.698125 471.861325 
" clip-path="url(#pc31e78323f)" style="fill: none; stroke: #b0b0b0; stroke-width: 0.8; stroke-linecap: square"/>
     </g>
     <g id="line2d_76">
      <g>
       <use xlink:href="#m50c8b83477" x="71.298125" y="471.861325" style="stroke: #000000; stroke-width: 0.8"/>
      </g>
     </g>
     <g id="text_26">
      <!-- 62 -->
      <g transform="translate(38.848125 479.459762) scale(0.2 -0.2)">
       <use xlink:href="#DejaVuSans-36"/>
       <use xlink:href="#DejaVuSans-32" x="63.623047"/>
      </g>
     </g>
    </g>
    <g id="text_27">
     <!-- $T$ [eV] -->
     <g transform="translate(30.272813 638.87) rotate(-90) scale(0.22 -0.22)">
      <defs>
       <path id="DejaVuSans-Oblique-54" d="M 378 4666 
L 4325 4666 
L 4225 4134 
L 2559 4134 
L 1759 0 
L 1125 0 
L 1925 4134 
L 275 4134 
L 378 4666 
z
" transform="scale(0.015625)"/>
       <path id="DejaVuSans-65" d="M 3597 1894 
L 3597 1613 
L 953 1613 
Q 991 1019 1311 708 
Q 1631 397 2203 397 
Q 2534 397 2845 478 
Q 3156 559 3463 722 
L 3463 178 
Q 3153 47 2828 -22 
Q 2503 -91 2169 -91 
Q 1331 -91 842 396 
Q 353 884 353 1716 
Q 353 2575 817 3079 
Q 1281 3584 2069 3584 
Q 2775 3584 3186 3129 
Q 3597 2675 3597 1894 
z
M 3022 2063 
Q 3016 2534 2758 2815 
Q 2500 3097 2075 3097 
Q 1594 3097 1305 2825 
Q 1016 2553 972 2059 
L 3022 2063 
z
" transform="scale(0.015625)"/>
       <path id="DejaVuSans-56" d="M 1831 0 
L 50 4666 
L 709 4666 
L 2188 738 
L 3669 4666 
L 4325 4666 
L 2547 0 
L 1831 0 
z
" transform="scale(0.015625)"/>
      </defs>
      <use xlink:href="#DejaVuSans-Oblique-54" transform="translate(0 0.015625)"/>
      <use xlink:href="#DejaVuSans-20" transform="translate(61.083984 0.015625)"/>
      <use xlink:href="#DejaVuSans-5b" transform="translate(92.871094 0.015625)"/>
      <use xlink:href="#DejaVuSans-65" transform="translate(131.884766 0.015625)"/>
      <use xlink:href="#DejaVuSans-56" transform="translate(193.408203 0.015625)"/>
      <use xlink:href="#DejaVuSans-5d" transform="translate(261.816406 0.015625)"/>
     </g>
    </g>
   </g>
   <g id="line2d_77">
    <path d="M 91.589034 461.896291 
L 106.604307 461.825755 
L 122.025398 462.120061 
L 133.794125 462.582193 
L 145.157034 463.234043 
L 156.519943 464.087772 
L 167.882852 465.143379 
L 183.303943 466.914076 
L 197.50758 468.898813 
L 207.653034 470.528438 
L 217.798489 472.342915 
L 227.538125 474.264413 
L 236.871943 476.275905 
L 248.64067 479.060861 
L 260.409398 482.13769 
L 270.96067 485.158576 
L 279.077034 487.656523 
L 291.25158 491.713559 
L 299.773761 494.783091 
L 310.730852 499.032277 
L 318.847216 502.410708 
L 326.151943 505.631041 
L 333.45667 509.031362 
L 340.35558 512.41709 
L 348.066125 516.418183 
L 355.370852 520.429006 
L 363.893034 525.405442 
L 371.197761 529.944068 
L 378.502489 534.75511 
L 384.99558 539.274278 
L 392.300307 544.654472 
L 398.38758 549.385248 
L 406.098125 555.718894 
L 412.591216 561.342315 
L 419.895943 567.96297 
L 429.63558 577.156972 
L 443.433398 590.237751 
L 449.114852 595.318775 
L 454.390489 599.726058 
L 459.260307 603.496086 
L 466.565034 608.79115 
L 471.029034 612.169581 
L 473.869761 614.61645 
L 475.898852 616.618213 
L 477.927943 618.92401 
L 479.551216 621.054684 
L 481.174489 623.496689 
L 482.797761 626.315696 
L 484.421034 629.57981 
L 486.044307 633.361999 
L 487.66758 637.74496 
L 489.290852 642.813822 
L 490.914125 648.656148 
L 492.537398 655.364365 
L 494.16067 663.028466 
L 495.783943 671.745742 
L 497.001398 679.171479 
L 497.407216 682.491536 
L 497.407216 682.491536 
" clip-path="url(#pc31e78323f)" style="fill: none; stroke: #6240d0; stroke-width: 2; stroke-linecap: square"/>
   </g>
   <g id="line2d_78">
    <path d="M 91.589034 461.76 
L 102.749034 461.857663 
L 114.92358 462.17781 
L 127.098125 462.724009 
L 139.27267 463.498483 
L 151.447216 464.504626 
L 163.621761 465.747442 
L 175.796307 467.233202 
L 187.970852 468.969044 
L 200.145398 470.963049 
L 210.290852 472.82888 
L 220.436307 474.887603 
L 230.581761 477.1472 
L 240.727216 479.616335 
L 250.87267 482.304292 
L 261.018125 485.221701 
L 271.16358 488.38135 
L 281.309034 491.798108 
L 291.454489 495.488392 
L 299.570852 498.649792 
L 307.687216 502.008634 
L 315.80358 505.576893 
L 323.919943 509.367812 
L 332.036307 513.396336 
L 340.15267 517.679886 
L 348.269034 522.238738 
L 356.385398 527.095655 
L 364.501761 532.275955 
L 370.589034 536.390774 
L 376.676307 540.718056 
L 382.76358 545.273869 
L 388.850852 550.076203 
L 394.938125 555.145554 
L 401.025398 560.505943 
L 407.11267 566.185538 
L 413.199943 572.216396 
L 419.287216 578.634942 
L 425.374489 585.484852 
L 431.461761 592.820309 
L 435.519943 598.012362 
L 439.578125 603.471773 
L 443.636307 609.224312 
L 447.694489 615.299903 
L 451.75267 621.73392 
L 455.810852 628.568977 
L 459.869034 635.856722 
L 463.927216 643.66024 
L 467.985398 652.058646 
L 472.04358 661.152515 
L 476.101761 671.069672 
L 480.159943 681.981002 
L 482.189034 687.876092 
L 486.247216 700.724396 
L 490.305398 715.101068 
L 492.334489 723.936718 
L 494.36358 727.946552 
L 496.39267 749.76 
L 497.407216 749.76 
L 497.407216 749.76 
" clip-path="url(#pc31e78323f)" style="fill: none; stroke-dasharray: 2.5,4.125; stroke-dashoffset: 0; stroke: #008000; stroke-width: 2.5"/>
    <g clip-path="url(#pc31e78323f)">
     <use xlink:href="#m000f78a64a" x="91.589034" y="461.76" style="fill: #ff0000; stroke: #008000"/>
     <use xlink:href="#m000f78a64a" x="110.865398" y="462.046093" style="fill: #ff0000; stroke: #008000"/>
     <use xlink:href="#m000f78a64a" x="131.156307" y="462.95667" style="fill: #ff0000; stroke: #008000"/>
     <use xlink:href="#m000f78a64a" x="151.447216" y="464.504626" style="fill: #ff0000; stroke: #008000"/>
     <use xlink:href="#m000f78a64a" x="171.738125" y="466.71053" style="fill: #ff0000; stroke: #008000"/>
     <use xlink:href="#m000f78a64a" x="192.029034" y="469.60459" style="fill: #ff0000; stroke: #008000"/>
     <use xlink:href="#m000f78a64a" x="212.319943" y="473.224952" style="fill: #ff0000; stroke: #008000"/>
     <use xlink:href="#m000f78a64a" x="232.610852" y="477.623978" style="fill: #ff0000; stroke: #008000"/>
     <use xlink:href="#m000f78a64a" x="252.901761" y="482.869042" style="fill: #ff0000; stroke: #008000"/>
     <use xlink:href="#m000f78a64a" x="273.19267" y="489.043628" style="fill: #ff0000; stroke: #008000"/>
     <use xlink:href="#m000f78a64a" x="293.48358" y="496.26084" style="fill: #ff0000; stroke: #008000"/>
     <use xlink:href="#m000f78a64a" x="313.774489" y="504.664495" style="fill: #ff0000; stroke: #008000"/>
     <use xlink:href="#m000f78a64a" x="334.065398" y="514.442571" style="fill: #ff0000; stroke: #008000"/>
     <use xlink:href="#m000f78a64a" x="354.356307" y="525.85215" style="fill: #ff0000; stroke: #008000"/>
     <use xlink:href="#m000f78a64a" x="374.647216" y="539.251068" style="fill: #ff0000; stroke: #008000"/>
     <use xlink:href="#m000f78a64a" x="394.938125" y="555.145554" style="fill: #ff0000; stroke: #008000"/>
     <use xlink:href="#m000f78a64a" x="415.229034" y="574.310864" style="fill: #ff0000; stroke: #008000"/>
     <use xlink:href="#m000f78a64a" x="435.519943" y="598.012362" style="fill: #ff0000; stroke: #008000"/>
     <use xlink:href="#m000f78a64a" x="455.810852" y="628.568977" style="fill: #ff0000; stroke: #008000"/>
     <use xlink:href="#m000f78a64a" x="476.101761" y="671.069672" style="fill: #ff0000; stroke: #008000"/>
     <use xlink:href="#m000f78a64a" x="496.39267" y="749.76" style="fill: #ff0000; stroke: #008000"/>
    </g>
   </g>
   <g id="line2d_79">
    <path d="M 497.407216 749.76 
" clip-path="url(#pc31e78323f)" style="fill: none; stroke: #1f77b4; stroke-width: 1.5; stroke-linecap: square"/>
    <g clip-path="url(#pc31e78323f)">
     <use xlink:href="#m9a59c28be3" x="497.407216" y="749.76" style="fill: #ff0000; stroke: #1f77b4"/>
    </g>
   </g>
   <g id="patch_13">
    <path d="M 71.298125 764.16 
L 71.298125 447.36 
" style="fill: none; stroke: #000000; stroke-width: 0.8; stroke-linejoin: miter; stroke-linecap: square"/>
   </g>
   <g id="patch_14">
    <path d="M 517.698125 764.16 
L 517.698125 447.36 
" style="fill: none; stroke: #000000; stroke-width: 0.8; stroke-linejoin: miter; stroke-linecap: square"/>
   </g>
   <g id="patch_15">
    <path d="M 71.298125 764.16 
L 517.698125 764.16 
" style="fill: none; stroke: #000000; stroke-width: 0.8; stroke-linejoin: miter; stroke-linecap: square"/>
   </g>
   <g id="patch_16">
    <path d="M 71.298125 447.36 
L 517.698125 447.36 
" style="fill: none; stroke: #000000; stroke-width: 0.8; stroke-linejoin: miter; stroke-linecap: square"/>
   </g>
  </g>
  <g id="axes_4">
   <g id="patch_17">
    <path d="M 629.298125 764.16 
L 1075.698125 764.16 
L 1075.698125 447.36 
L 629.298125 447.36 
z
" style="fill: #ffffff"/>
   </g>
   <g id="matplotlib.axis_7">
    <g id="xtick_19">
     <g id="line2d_80">
      <path d="M 649.589034 764.16 
L 649.589034 447.36 
" clip-path="url(#p548076e7d4)" style="fill: none; stroke: #b0b0b0; stroke-width: 0.8; stroke-linecap: square"/>
     </g>
     <g id="line2d_81">
      <g>
       <use xlink:href="#mf00a5328e5" x="649.589034" y="764.16" style="stroke: #000000; stroke-width: 0.8"/>
      </g>
     </g>
     <g id="text_28">
      <!-- 0 -->
      <g transform="translate(643.226534 786.356875) scale(0.2 -0.2)">
       <use xlink:href="#DejaVuSans-30"/>
      </g>
     </g>
    </g>
    <g id="xtick_20">
     <g id="line2d_82">
      <path d="M 730.75267 764.16 
L 730.75267 447.36 
" clip-path="url(#p548076e7d4)" style="fill: none; stroke: #b0b0b0; stroke-width: 0.8; stroke-linecap: square"/>
     </g>
     <g id="line2d_83">
      <g>
       <use xlink:href="#mf00a5328e5" x="730.75267" y="764.16" style="stroke: #000000; stroke-width: 0.8"/>
      </g>
     </g>
     <g id="text_29">
      <!-- 5 -->
      <g transform="translate(724.39017 786.356875) scale(0.2 -0.2)">
       <use xlink:href="#DejaVuSans-35"/>
      </g>
     </g>
    </g>
    <g id="xtick_21">
     <g id="line2d_84">
      <path d="M 811.916307 764.16 
L 811.916307 447.36 
" clip-path="url(#p548076e7d4)" style="fill: none; stroke: #b0b0b0; stroke-width: 0.8; stroke-linecap: square"/>
     </g>
     <g id="line2d_85">
      <g>
       <use xlink:href="#mf00a5328e5" x="811.916307" y="764.16" style="stroke: #000000; stroke-width: 0.8"/>
      </g>
     </g>
     <g id="text_30">
      <!-- 10 -->
      <g transform="translate(799.191307 786.356875) scale(0.2 -0.2)">
       <use xlink:href="#DejaVuSans-31"/>
       <use xlink:href="#DejaVuSans-30" x="63.623047"/>
      </g>
     </g>
    </g>
    <g id="xtick_22">
     <g id="line2d_86">
      <path d="M 893.079943 764.16 
L 893.079943 447.36 
" clip-path="url(#p548076e7d4)" style="fill: none; stroke: #b0b0b0; stroke-width: 0.8; stroke-linecap: square"/>
     </g>
     <g id="line2d_87">
      <g>
       <use xlink:href="#mf00a5328e5" x="893.079943" y="764.16" style="stroke: #000000; stroke-width: 0.8"/>
      </g>
     </g>
     <g id="text_31">
      <!-- 15 -->
      <g transform="translate(880.354943 786.356875) scale(0.2 -0.2)">
       <use xlink:href="#DejaVuSans-31"/>
       <use xlink:href="#DejaVuSans-35" x="63.623047"/>
      </g>
     </g>
    </g>
    <g id="xtick_23">
     <g id="line2d_88">
      <path d="M 974.24358 764.16 
L 974.24358 447.36 
" clip-path="url(#p548076e7d4)" style="fill: none; stroke: #b0b0b0; stroke-width: 0.8; stroke-linecap: square"/>
     </g>
     <g id="line2d_89">
      <g>
       <use xlink:href="#mf00a5328e5" x="974.24358" y="764.16" style="stroke: #000000; stroke-width: 0.8"/>
      </g>
     </g>
     <g id="text_32">
      <!-- 20 -->
      <g transform="translate(961.51858 786.356875) scale(0.2 -0.2)">
       <use xlink:href="#DejaVuSans-32"/>
       <use xlink:href="#DejaVuSans-30" x="63.623047"/>
      </g>
     </g>
    </g>
    <g id="xtick_24">
     <g id="line2d_90">
      <path d="M 1055.407216 764.16 
L 1055.407216 447.36 
" clip-path="url(#p548076e7d4)" style="fill: none; stroke: #b0b0b0; stroke-width: 0.8; stroke-linecap: square"/>
     </g>
     <g id="line2d_91">
      <g>
       <use xlink:href="#mf00a5328e5" x="1055.407216" y="764.16" style="stroke: #000000; stroke-width: 0.8"/>
      </g>
     </g>
     <g id="text_33">
      <!-- 25 -->
      <g transform="translate(1042.682216 786.356875) scale(0.2 -0.2)">
       <use xlink:href="#DejaVuSans-32"/>
       <use xlink:href="#DejaVuSans-35" x="63.623047"/>
      </g>
     </g>
    </g>
    <g id="text_34">
     <!-- x $[m]$ -->
     <g transform="translate(823.128125 811.232812) scale(0.22 -0.22)">
      <use xlink:href="#DejaVuSans-78" transform="translate(0 0.015625)"/>
      <use xlink:href="#DejaVuSans-20" transform="translate(59.179688 0.015625)"/>
      <use xlink:href="#DejaVuSans-5b" transform="translate(90.966797 0.015625)"/>
      <use xlink:href="#DejaVuSans-Oblique-6d" transform="translate(129.980469 0.015625)"/>
      <use xlink:href="#DejaVuSans-5d" transform="translate(227.392578 0.015625)"/>
     </g>
    </g>
   </g>
   <g id="matplotlib.axis_8">
    <g id="ytick_18">
     <g id="line2d_92">
      <path d="M 629.298125 731.328991 
L 1075.698125 731.328991 
" clip-path="url(#p548076e7d4)" style="fill: none; stroke: #b0b0b0; stroke-width: 0.8; stroke-linecap: square"/>
     </g>
     <g id="line2d_93">
      <g>
       <use xlink:href="#m50c8b83477" x="629.298125" y="731.328991" style="stroke: #000000; stroke-width: 0.8"/>
      </g>
     </g>
     <g id="text_35">
      <!-- 6 -->
      <g transform="translate(609.573125 738.927429) scale(0.2 -0.2)">
       <use xlink:href="#DejaVuSans-36"/>
      </g>
     </g>
    </g>
    <g id="ytick_19">
     <g id="line2d_94">
      <path d="M 629.298125 683.479048 
L 1075.698125 683.479048 
" clip-path="url(#p548076e7d4)" style="fill: none; stroke: #b0b0b0; stroke-width: 0.8; stroke-linecap: square"/>
     </g>
     <g id="line2d_95">
      <g>
       <use xlink:href="#m50c8b83477" x="629.298125" y="683.479048" style="stroke: #000000; stroke-width: 0.8"/>
      </g>
     </g>
     <g id="text_36">
      <!-- 7 -->
      <g transform="translate(609.573125 691.077485) scale(0.2 -0.2)">
       <use xlink:href="#DejaVuSans-37"/>
      </g>
     </g>
    </g>
    <g id="ytick_20">
     <g id="line2d_96">
      <path d="M 629.298125 635.629105 
L 1075.698125 635.629105 
" clip-path="url(#p548076e7d4)" style="fill: none; stroke: #b0b0b0; stroke-width: 0.8; stroke-linecap: square"/>
     </g>
     <g id="line2d_97">
      <g>
       <use xlink:href="#m50c8b83477" x="629.298125" y="635.629105" style="stroke: #000000; stroke-width: 0.8"/>
      </g>
     </g>
     <g id="text_37">
      <!-- 8 -->
      <g transform="translate(609.573125 643.227542) scale(0.2 -0.2)">
       <use xlink:href="#DejaVuSans-38"/>
      </g>
     </g>
    </g>
    <g id="ytick_21">
     <g id="line2d_98">
      <path d="M 629.298125 587.779161 
L 1075.698125 587.779161 
" clip-path="url(#p548076e7d4)" style="fill: none; stroke: #b0b0b0; stroke-width: 0.8; stroke-linecap: square"/>
     </g>
     <g id="line2d_99">
      <g>
       <use xlink:href="#m50c8b83477" x="629.298125" y="587.779161" style="stroke: #000000; stroke-width: 0.8"/>
      </g>
     </g>
     <g id="text_38">
      <!-- 9 -->
      <g transform="translate(609.573125 595.377599) scale(0.2 -0.2)">
       <use xlink:href="#DejaVuSans-39"/>
      </g>
     </g>
    </g>
    <g id="ytick_22">
     <g id="line2d_100">
      <path d="M 629.298125 539.929218 
L 1075.698125 539.929218 
" clip-path="url(#p548076e7d4)" style="fill: none; stroke: #b0b0b0; stroke-width: 0.8; stroke-linecap: square"/>
     </g>
     <g id="line2d_101">
      <g>
       <use xlink:href="#m50c8b83477" x="629.298125" y="539.929218" style="stroke: #000000; stroke-width: 0.8"/>
      </g>
     </g>
     <g id="text_39">
      <!-- 10 -->
      <g transform="translate(596.848125 547.527655) scale(0.2 -0.2)">
       <use xlink:href="#DejaVuSans-31"/>
       <use xlink:href="#DejaVuSans-30" x="63.623047"/>
      </g>
     </g>
    </g>
    <g id="ytick_23">
     <g id="line2d_102">
      <path d="M 629.298125 492.079274 
L 1075.698125 492.079274 
" clip-path="url(#p548076e7d4)" style="fill: none; stroke: #b0b0b0; stroke-width: 0.8; stroke-linecap: square"/>
     </g>
     <g id="line2d_103">
      <g>
       <use xlink:href="#m50c8b83477" x="629.298125" y="492.079274" style="stroke: #000000; stroke-width: 0.8"/>
      </g>
     </g>
     <g id="text_40">
      <!-- 11 -->
      <g transform="translate(596.848125 499.677712) scale(0.2 -0.2)">
       <use xlink:href="#DejaVuSans-31"/>
       <use xlink:href="#DejaVuSans-31" x="63.623047"/>
      </g>
     </g>
    </g>
    <g id="text_41">
     <!-- $P$ -->
     <g transform="translate(588.272812 612.47) rotate(-90) scale(0.22 -0.22)">
      <defs>
       <path id="DejaVuSans-Oblique-50" d="M 1081 4666 
L 2541 4666 
Q 3178 4666 3512 4369 
Q 3847 4072 3847 3500 
Q 3847 2731 3353 2303 
Q 2859 1875 1966 1875 
L 1172 1875 
L 806 0 
L 172 0 
L 1081 4666 
z
M 1613 4147 
L 1275 2394 
L 2069 2394 
Q 2606 2394 2893 2669 
Q 3181 2944 3181 3456 
Q 3181 3784 2986 3965 
Q 2791 4147 2438 4147 
L 1613 4147 
z
" transform="scale(0.015625)"/>
      </defs>
      <use xlink:href="#DejaVuSans-Oblique-50" transform="translate(0 0.09375)"/>
     </g>
    </g>
   </g>
   <g id="line2d_104">
    <path d="M 649.589034 461.866431 
L 660.140307 461.76 
L 670.69158 461.885838 
L 681.242852 462.243408 
L 691.388307 462.806284 
L 701.533761 463.585521 
L 710.461761 464.450076 
L 721.418852 465.742794 
L 731.564307 467.170714 
L 742.11558 468.891617 
L 753.07267 470.939371 
L 763.623943 473.165481 
L 773.36358 475.444702 
L 782.697398 477.836312 
L 792.031216 480.434445 
L 801.365034 483.242575 
L 811.510489 486.541441 
L 821.250125 489.954565 
L 831.39558 493.7758 
L 840.729398 497.53816 
L 849.657398 501.364279 
L 858.991216 505.613933 
L 867.513398 509.722678 
L 876.03558 514.05897 
L 884.557761 518.632732 
L 893.079943 523.454917 
L 901.196307 528.287671 
L 909.718489 533.628913 
L 917.834852 538.982025 
L 925.951216 544.611099 
L 933.661761 550.228096 
L 941.372307 556.125622 
L 949.082852 562.323536 
L 955.981761 568.141413 
L 962.88067 574.237175 
L 969.77958 580.637762 
L 975.866852 586.563853 
L 981.954125 592.783788 
L 987.63558 598.892164 
L 992.911216 604.8681 
L 997.781034 610.690285 
L 1002.650852 616.864069 
L 1007.114852 622.891346 
L 1011.173034 628.73842 
L 1015.231216 635.004042 
L 1018.88358 641.064746 
L 1022.130125 646.842848 
L 1025.37667 653.044392 
L 1028.623216 659.726044 
L 1031.869761 666.946307 
L 1035.116307 674.76807 
L 1038.362852 683.24788 
L 1041.609398 692.439747 
L 1044.855943 702.38273 
L 1048.102489 713.103896 
L 1051.349034 724.608826 
L 1054.59558 736.885927 
L 1055.407216 740.080705 
L 1055.407216 740.080705 
" clip-path="url(#p548076e7d4)" style="fill: none; stroke: #6240d0; stroke-width: 2; stroke-linecap: square"/>
   </g>
   <g id="line2d_105">
    <path d="M 649.589034 461.81674 
L 658.719943 461.90273 
L 668.865398 462.203869 
L 679.010852 462.720243 
L 689.156307 463.452378 
L 699.301761 464.401298 
L 709.447216 465.568676 
L 719.59267 466.956813 
L 729.738125 468.568472 
L 739.88358 470.406704 
L 750.029034 472.474793 
L 760.174489 474.776424 
L 770.319943 477.31599 
L 780.465398 480.098796 
L 790.610852 483.13087 
L 800.756307 486.418582 
L 810.901761 489.968685 
L 821.047216 493.789021 
L 831.19267 497.889061 
L 841.338125 502.279609 
L 849.454489 506.009018 
L 857.570852 509.938333 
L 865.687216 514.074883 
L 873.80358 518.426797 
L 881.919943 523.002953 
L 890.036307 527.813277 
L 898.15267 532.869323 
L 906.269034 538.184477 
L 914.385398 543.773538 
L 922.501761 549.652633 
L 930.618125 555.840146 
L 938.734489 562.357632 
L 946.850852 569.229973 
L 952.938125 574.634322 
L 959.025398 580.268996 
L 965.11267 586.150953 
L 971.199943 592.299174 
L 977.287216 598.734801 
L 983.374489 605.483026 
L 989.461761 612.575077 
L 995.549034 620.048447 
L 1001.636307 627.947299 
L 1007.72358 636.325412 
L 1011.781761 642.210155 
L 1015.839943 648.363364 
L 1019.898125 654.815624 
L 1023.956307 661.604444 
L 1028.014489 668.777044 
L 1032.07267 676.392575 
L 1036.130852 684.526228 
L 1040.189034 693.279361 
L 1044.247216 702.780719 
L 1048.305398 713.100249 
L 1050.334489 719.173611 
L 1052.36358 722.154908 
L 1054.39267 735.957454 
L 1055.407216 749.76 
L 1055.407216 749.76 
" clip-path="url(#p548076e7d4)" style="fill: none; stroke-dasharray: 2.5,4.125; stroke-dashoffset: 0; stroke: #008000; stroke-width: 2.5"/>
    <g clip-path="url(#p548076e7d4)">
     <use xlink:href="#m000f78a64a" x="649.589034" y="461.81674" style="fill: #ff0000; stroke: #008000"/>
     <use xlink:href="#m000f78a64a" x="668.865398" y="462.203869" style="fill: #ff0000; stroke: #008000"/>
     <use xlink:href="#m000f78a64a" x="689.156307" y="463.452378" style="fill: #ff0000; stroke: #008000"/>
     <use xlink:href="#m000f78a64a" x="709.447216" y="465.568676" style="fill: #ff0000; stroke: #008000"/>
     <use xlink:href="#m000f78a64a" x="729.738125" y="468.568472" style="fill: #ff0000; stroke: #008000"/>
     <use xlink:href="#m000f78a64a" x="750.029034" y="472.474793" style="fill: #ff0000; stroke: #008000"/>
     <use xlink:href="#m000f78a64a" x="770.319943" y="477.31599" style="fill: #ff0000; stroke: #008000"/>
     <use xlink:href="#m000f78a64a" x="790.610852" y="483.13087" style="fill: #ff0000; stroke: #008000"/>
     <use xlink:href="#m000f78a64a" x="810.901761" y="489.968685" style="fill: #ff0000; stroke: #008000"/>
     <use xlink:href="#m000f78a64a" x="831.19267" y="497.889061" style="fill: #ff0000; stroke: #008000"/>
     <use xlink:href="#m000f78a64a" x="851.48358" y="506.972334" style="fill: #ff0000; stroke: #008000"/>
     <use xlink:href="#m000f78a64a" x="871.774489" y="517.318156" style="fill: #ff0000; stroke: #008000"/>
     <use xlink:href="#m000f78a64a" x="892.065398" y="529.053758" style="fill: #ff0000; stroke: #008000"/>
     <use xlink:href="#m000f78a64a" x="912.356307" y="542.349741" style="fill: #ff0000; stroke: #008000"/>
     <use xlink:href="#m000f78a64a" x="932.647216" y="557.437668" style="fill: #ff0000; stroke: #008000"/>
     <use xlink:href="#m000f78a64a" x="952.938125" y="574.634322" style="fill: #ff0000; stroke: #008000"/>
     <use xlink:href="#m000f78a64a" x="973.229034" y="594.411312" style="fill: #ff0000; stroke: #008000"/>
     <use xlink:href="#m000f78a64a" x="993.519943" y="617.51239" style="fill: #ff0000; stroke: #008000"/>
     <use xlink:href="#m000f78a64a" x="1013.810852" y="645.251441" style="fill: #ff0000; stroke: #008000"/>
     <use xlink:href="#m000f78a64a" x="1034.101761" y="680.389031" style="fill: #ff0000; stroke: #008000"/>
     <use xlink:href="#m000f78a64a" x="1054.39267" y="735.957454" style="fill: #ff0000; stroke: #008000"/>
    </g>
   </g>
   <g id="line2d_106">
    <path d="M 1055.407216 749.76 
" clip-path="url(#p548076e7d4)" style="fill: none; stroke: #1f77b4; stroke-width: 1.5; stroke-linecap: square"/>
    <g clip-path="url(#p548076e7d4)">
     <use xlink:href="#m9a59c28be3" x="1055.407216" y="749.76" style="fill: #ff0000; stroke: #1f77b4"/>
    </g>
   </g>
   <g id="patch_18">
    <path d="M 629.298125 764.16 
L 629.298125 447.36 
" style="fill: none; stroke: #000000; stroke-width: 0.8; stroke-linejoin: miter; stroke-linecap: square"/>
   </g>
   <g id="patch_19">
    <path d="M 1075.698125 764.16 
L 1075.698125 447.36 
" style="fill: none; stroke: #000000; stroke-width: 0.8; stroke-linejoin: miter; stroke-linecap: square"/>
   </g>
   <g id="patch_20">
    <path d="M 629.298125 764.16 
L 1075.698125 764.16 
" style="fill: none; stroke: #000000; stroke-width: 0.8; stroke-linejoin: miter; stroke-linecap: square"/>
   </g>
   <g id="patch_21">
    <path d="M 629.298125 447.36 
L 1075.698125 447.36 
" style="fill: none; stroke: #000000; stroke-width: 0.8; stroke-linejoin: miter; stroke-linecap: square"/>
   </g>
  </g>
  <g id="legend_1">
   <g id="patch_22">
    <path d="M 310.612188 54.4275 
L 772.285938 54.4275 
Q 777.085938 54.4275 777.085938 49.6275 
L 777.085938 16.8 
Q 777.085938 12 772.285938 12 
L 310.612188 12 
Q 305.812188 12 305.812188 16.8 
L 305.812188 49.6275 
Q 305.812188 54.4275 310.612188 54.4275 
z
" style="fill: #ffffff; opacity: 0.8; stroke: #cccccc; stroke-linejoin: miter"/>
   </g>
   <g id="line2d_107">
    <path d="M 315.412188 31.43625 
L 339.412188 31.43625 
L 363.412188 31.43625 
" style="fill: none; stroke: #6240d0; stroke-width: 2; stroke-linecap: square"/>
   </g>
   <g id="text_42">
    <!-- sparselizard FEM -->
    <g transform="translate(382.612188 39.83625) scale(0.24 -0.24)">
     <defs>
      <path id="DejaVuSans-73" d="M 2834 3397 
L 2834 2853 
Q 2591 2978 2328 3040 
Q 2066 3103 1784 3103 
Q 1356 3103 1142 2972 
Q 928 2841 928 2578 
Q 928 2378 1081 2264 
Q 1234 2150 1697 2047 
L 1894 2003 
Q 2506 1872 2764 1633 
Q 3022 1394 3022 966 
Q 3022 478 2636 193 
Q 2250 -91 1575 -91 
Q 1294 -91 989 -36 
Q 684 19 347 128 
L 347 722 
Q 666 556 975 473 
Q 1284 391 1588 391 
Q 1994 391 2212 530 
Q 2431 669 2431 922 
Q 2431 1156 2273 1281 
Q 2116 1406 1581 1522 
L 1381 1569 
Q 847 1681 609 1914 
Q 372 2147 372 2553 
Q 372 3047 722 3315 
Q 1072 3584 1716 3584 
Q 2034 3584 2315 3537 
Q 2597 3491 2834 3397 
z
" transform="scale(0.015625)"/>
      <path id="DejaVuSans-70" d="M 1159 525 
L 1159 -1331 
L 581 -1331 
L 581 3500 
L 1159 3500 
L 1159 2969 
Q 1341 3281 1617 3432 
Q 1894 3584 2278 3584 
Q 2916 3584 3314 3078 
Q 3713 2572 3713 1747 
Q 3713 922 3314 415 
Q 2916 -91 2278 -91 
Q 1894 -91 1617 61 
Q 1341 213 1159 525 
z
M 3116 1747 
Q 3116 2381 2855 2742 
Q 2594 3103 2138 3103 
Q 1681 3103 1420 2742 
Q 1159 2381 1159 1747 
Q 1159 1113 1420 752 
Q 1681 391 2138 391 
Q 2594 391 2855 752 
Q 3116 1113 3116 1747 
z
" transform="scale(0.015625)"/>
      <path id="DejaVuSans-61" d="M 2194 1759 
Q 1497 1759 1228 1600 
Q 959 1441 959 1056 
Q 959 750 1161 570 
Q 1363 391 1709 391 
Q 2188 391 2477 730 
Q 2766 1069 2766 1631 
L 2766 1759 
L 2194 1759 
z
M 3341 1997 
L 3341 0 
L 2766 0 
L 2766 531 
Q 2569 213 2275 61 
Q 1981 -91 1556 -91 
Q 1019 -91 701 211 
Q 384 513 384 1019 
Q 384 1609 779 1909 
Q 1175 2209 1959 2209 
L 2766 2209 
L 2766 2266 
Q 2766 2663 2505 2880 
Q 2244 3097 1772 3097 
Q 1472 3097 1187 3025 
Q 903 2953 641 2809 
L 641 3341 
Q 956 3463 1253 3523 
Q 1550 3584 1831 3584 
Q 2591 3584 2966 3190 
Q 3341 2797 3341 1997 
z
" transform="scale(0.015625)"/>
      <path id="DejaVuSans-72" d="M 2631 2963 
Q 2534 3019 2420 3045 
Q 2306 3072 2169 3072 
Q 1681 3072 1420 2755 
Q 1159 2438 1159 1844 
L 1159 0 
L 581 0 
L 581 3500 
L 1159 3500 
L 1159 2956 
Q 1341 3275 1631 3429 
Q 1922 3584 2338 3584 
Q 2397 3584 2469 3576 
Q 2541 3569 2628 3553 
L 2631 2963 
z
" transform="scale(0.015625)"/>
      <path id="DejaVuSans-6c" d="M 603 4863 
L 1178 4863 
L 1178 0 
L 603 0 
L 603 4863 
z
" transform="scale(0.015625)"/>
      <path id="DejaVuSans-69" d="M 603 3500 
L 1178 3500 
L 1178 0 
L 603 0 
L 603 3500 
z
M 603 4863 
L 1178 4863 
L 1178 4134 
L 603 4134 
L 603 4863 
z
" transform="scale(0.015625)"/>
      <path id="DejaVuSans-7a" d="M 353 3500 
L 3084 3500 
L 3084 2975 
L 922 459 
L 3084 459 
L 3084 0 
L 275 0 
L 275 525 
L 2438 3041 
L 353 3041 
L 353 3500 
z
" transform="scale(0.015625)"/>
      <path id="DejaVuSans-64" d="M 2906 2969 
L 2906 4863 
L 3481 4863 
L 3481 0 
L 2906 0 
L 2906 525 
Q 2725 213 2448 61 
Q 2172 -91 1784 -91 
Q 1150 -91 751 415 
Q 353 922 353 1747 
Q 353 2572 751 3078 
Q 1150 3584 1784 3584 
Q 2172 3584 2448 3432 
Q 2725 3281 2906 2969 
z
M 947 1747 
Q 947 1113 1208 752 
Q 1469 391 1925 391 
Q 2381 391 2643 752 
Q 2906 1113 2906 1747 
Q 2906 2381 2643 2742 
Q 2381 3103 1925 3103 
Q 1469 3103 1208 2742 
Q 947 2381 947 1747 
z
" transform="scale(0.015625)"/>
      <path id="DejaVuSans-46" d="M 628 4666 
L 3309 4666 
L 3309 4134 
L 1259 4134 
L 1259 2759 
L 3109 2759 
L 3109 2228 
L 1259 2228 
L 1259 0 
L 628 0 
L 628 4666 
z
" transform="scale(0.015625)"/>
      <path id="DejaVuSans-45" d="M 628 4666 
L 3578 4666 
L 3578 4134 
L 1259 4134 
L 1259 2753 
L 3481 2753 
L 3481 2222 
L 1259 2222 
L 1259 531 
L 3634 531 
L 3634 0 
L 628 0 
L 628 4666 
z
" transform="scale(0.015625)"/>
      <path id="DejaVuSans-4d" d="M 628 4666 
L 1569 4666 
L 2759 1491 
L 3956 4666 
L 4897 4666 
L 4897 0 
L 4281 0 
L 4281 4097 
L 3078 897 
L 2444 897 
L 1241 4097 
L 1241 0 
L 628 0 
L 628 4666 
z
" transform="scale(0.015625)"/>
     </defs>
     <use xlink:href="#DejaVuSans-73"/>
     <use xlink:href="#DejaVuSans-70" x="52.099609"/>
     <use xlink:href="#DejaVuSans-61" x="115.576172"/>
     <use xlink:href="#DejaVuSans-72" x="176.855469"/>
     <use xlink:href="#DejaVuSans-73" x="217.96875"/>
     <use xlink:href="#DejaVuSans-65" x="270.068359"/>
     <use xlink:href="#DejaVuSans-6c" x="331.591797"/>
     <use xlink:href="#DejaVuSans-69" x="359.375"/>
     <use xlink:href="#DejaVuSans-7a" x="387.158203"/>
     <use xlink:href="#DejaVuSans-61" x="439.648438"/>
     <use xlink:href="#DejaVuSans-72" x="500.927734"/>
     <use xlink:href="#DejaVuSans-64" x="540.291016"/>
     <use xlink:href="#DejaVuSans-20" x="603.767578"/>
     <use xlink:href="#DejaVuSans-46" x="635.554688"/>
     <use xlink:href="#DejaVuSans-45" x="693.074219"/>
     <use xlink:href="#DejaVuSans-4d" x="756.257812"/>
    </g>
   </g>
   <g id="line2d_108">
    <path d="M 632.819688 31.43625 
L 656.819688 31.43625 
L 680.819688 31.43625 
" style="fill: none; stroke-dasharray: 2.5,4.125; stroke-dashoffset: 0; stroke: #008000; stroke-width: 2.5"/>
    <g>
     <use xlink:href="#m000f78a64a" x="656.819688" y="31.43625" style="fill: #ff0000; stroke: #008000"/>
    </g>
   </g>
   <g id="text_43">
    <!-- SD1D -->
    <g transform="translate(700.019688 39.83625) scale(0.24 -0.24)">
     <defs>
      <path id="DejaVuSans-53" d="M 3425 4513 
L 3425 3897 
Q 3066 4069 2747 4153 
Q 2428 4238 2131 4238 
Q 1616 4238 1336 4038 
Q 1056 3838 1056 3469 
Q 1056 3159 1242 3001 
Q 1428 2844 1947 2747 
L 2328 2669 
Q 3034 2534 3370 2195 
Q 3706 1856 3706 1288 
Q 3706 609 3251 259 
Q 2797 -91 1919 -91 
Q 1588 -91 1214 -16 
Q 841 59 441 206 
L 441 856 
Q 825 641 1194 531 
Q 1563 422 1919 422 
Q 2459 422 2753 634 
Q 3047 847 3047 1241 
Q 3047 1584 2836 1778 
Q 2625 1972 2144 2069 
L 1759 2144 
Q 1053 2284 737 2584 
Q 422 2884 422 3419 
Q 422 4038 858 4394 
Q 1294 4750 2059 4750 
Q 2388 4750 2728 4690 
Q 3069 4631 3425 4513 
z
" transform="scale(0.015625)"/>
      <path id="DejaVuSans-44" d="M 1259 4147 
L 1259 519 
L 2022 519 
Q 2988 519 3436 956 
Q 3884 1394 3884 2338 
Q 3884 3275 3436 3711 
Q 2988 4147 2022 4147 
L 1259 4147 
z
M 628 4666 
L 1925 4666 
Q 3281 4666 3915 4102 
Q 4550 3538 4550 2338 
Q 4550 1131 3912 565 
Q 3275 0 1925 0 
L 628 0 
L 628 4666 
z
" transform="scale(0.015625)"/>
     </defs>
     <use xlink:href="#DejaVuSans-53"/>
     <use xlink:href="#DejaVuSans-44" x="63.476562"/>
     <use xlink:href="#DejaVuSans-31" x="140.478516"/>
     <use xlink:href="#DejaVuSans-44" x="204.101562"/>
    </g>
   </g>
  </g>
 </g>
 <defs>
  <clipPath id="pec1d3000de">
   <rect x="71.298125" y="98.88" width="446.4" height="316.8"/>
  </clipPath>
  <clipPath id="pa907812ed4">
   <rect x="629.298125" y="98.88" width="446.4" height="316.8"/>
  </clipPath>
  <clipPath id="pc31e78323f">
   <rect x="71.298125" y="447.36" width="446.4" height="316.8"/>
  </clipPath>
  <clipPath id="p548076e7d4">
   <rect x="629.298125" y="447.36" width="446.4" height="316.8"/>
  </clipPath>
 </defs>
</svg>
