<?xml version="1.0" encoding="utf-8" standalone="no"?>
<!DOCTYPE svg PUBLIC "-//W3C//DTD SVG 1.1//EN"
  "http://www.w3.org/Graphics/SVG/1.1/DTD/svg11.dtd">
<svg xmlns:xlink="http://www.w3.org/1999/xlink" width="1296pt" height="576pt" viewBox="0 0 1296 576" xmlns="http://www.w3.org/2000/svg" version="1.1">
 <metadata>
  <rdf:RDF xmlns:dc="http://purl.org/dc/elements/1.1/" xmlns:cc="http://creativecommons.org/ns#" xmlns:rdf="http://www.w3.org/1999/02/22-rdf-syntax-ns#">
   <cc:Work>
    <dc:type rdf:resource="http://purl.org/dc/dcmitype/StillImage"/>
    <dc:date>2024-05-26T21:05:44.965007</dc:date>
    <dc:format>image/svg+xml</dc:format>
    <dc:creator>
     <cc:Agent>
      <dc:title>Matplotlib v3.8.0, https://matplotlib.org/</dc:title>
     </cc:Agent>
    </dc:creator>
   </cc:Work>
  </rdf:RDF>
 </metadata>
 <defs>
  <style type="text/css">*{stroke-linejoin: round; stroke-linecap: butt}</style>
 </defs>
 <g id="figure_1">
  <g id="patch_1">
   <path d="M 0 576 
L 1296 576 
L 1296 0 
L 0 0 
z
" style="fill: #ffffff"/>
  </g>
  <g id="axes_1">
   <g id="patch_2">
    <path d="M 162 512.64 
L 618.545455 512.64 
L 618.545455 69.12 
L 162 69.12 
z
" style="fill: #ffffff"/>
   </g>
   <g id="PathCollection_1">
    <defs>
     <path id="m025dac2914" d="M 0 3 
C 0.795609 3 1.55874 2.683901 2.12132 2.12132 
C 2.683901 1.55874 3 0.795609 3 0 
C 3 -0.795609 2.683901 -1.55874 2.12132 -2.12132 
C 1.55874 -2.683901 0.795609 -3 0 -3 
C -0.795609 -3 -1.55874 -2.683901 -2.12132 -2.12132 
C -2.683901 -1.55874 -3 -0.795609 -3 0 
C -3 0.795609 -2.683901 1.55874 -2.12132 2.12132 
C -1.55874 2.683901 -0.795609 3 0 3 
z
" style="stroke: #0000ff"/>
    </defs>
    <g clip-path="url(#p52a878747e)">
     <use xlink:href="#m025dac2914" x="182.752066" y="492.48" style="fill: #0000ff; stroke: #0000ff"/>
     <use xlink:href="#m025dac2914" x="203.504132" y="480.96649" style="fill: #0000ff; stroke: #0000ff"/>
     <use xlink:href="#m025dac2914" x="224.256198" y="469.415274" style="fill: #0000ff; stroke: #0000ff"/>
     <use xlink:href="#m025dac2914" x="245.008264" y="457.787771" style="fill: #0000ff; stroke: #0000ff"/>
     <use xlink:href="#m025dac2914" x="265.760331" y="446.043598" style="fill: #0000ff; stroke: #0000ff"/>
     <use xlink:href="#m025dac2914" x="286.512397" y="434.139521" style="fill: #0000ff; stroke: #0000ff"/>
     <use xlink:href="#m025dac2914" x="307.264463" y="422.028203" style="fill: #0000ff; stroke: #0000ff"/>
     <use xlink:href="#m025dac2914" x="328.016529" y="409.656646" style="fill: #0000ff; stroke: #0000ff"/>
     <use xlink:href="#m025dac2914" x="348.768595" y="396.964172" style="fill: #0000ff; stroke: #0000ff"/>
     <use xlink:href="#m025dac2914" x="369.520661" y="383.879691" style="fill: #0000ff; stroke: #0000ff"/>
     <use xlink:href="#m025dac2914" x="390.272727" y="370.317892" style="fill: #0000ff; stroke: #0000ff"/>
     <use xlink:href="#m025dac2914" x="411.024793" y="356.173716" style="fill: #0000ff; stroke: #0000ff"/>
     <use xlink:href="#m025dac2914" x="431.77686" y="341.314004" style="fill: #0000ff; stroke: #0000ff"/>
     <use xlink:href="#m025dac2914" x="452.528926" y="325.564291" style="fill: #0000ff; stroke: #0000ff"/>
     <use xlink:href="#m025dac2914" x="473.280992" y="308.686704" style="fill: #0000ff; stroke: #0000ff"/>
     <use xlink:href="#m025dac2914" x="494.033058" y="290.340267" style="fill: #0000ff; stroke: #0000ff"/>
     <use xlink:href="#m025dac2914" x="514.785124" y="270.002691" style="fill: #0000ff; stroke: #0000ff"/>
     <use xlink:href="#m025dac2914" x="535.53719" y="246.794849" style="fill: #0000ff; stroke: #0000ff"/>
     <use xlink:href="#m025dac2914" x="556.289256" y="219.000167" style="fill: #0000ff; stroke: #0000ff"/>
     <use xlink:href="#m025dac2914" x="577.041322" y="182.175075" style="fill: #0000ff; stroke: #0000ff"/>
     <use xlink:href="#m025dac2914" x="597.793388" y="89.28" style="fill: #0000ff; stroke: #0000ff"/>
    </g>
   </g>
   <g id="PathCollection_2">
    <defs>
     <path id="mf3279dfb35" d="M 0 3 
C 0.795609 3 1.55874 2.683901 2.12132 2.12132 
C 2.683901 1.55874 3 0.795609 3 0 
C 3 -0.795609 2.683901 -1.55874 2.12132 -2.12132 
C 1.55874 -2.683901 0.795609 -3 0 -3 
C -0.795609 -3 -1.55874 -2.683901 -2.12132 -2.12132 
C -2.683901 -1.55874 -3 -0.795609 -3 0 
C -3 0.795609 -2.683901 1.55874 -2.12132 2.12132 
C -1.55874 2.683901 -0.795609 3 0 3 
z
" style="stroke: #ff00ff"/>
    </defs>
    <g clip-path="url(#p52a878747e)">
     <use xlink:href="#mf3279dfb35" x="182.752066" y="492.48" style="fill: #ff00ff; stroke: #ff00ff"/>
     <use xlink:href="#mf3279dfb35" x="203.504132" y="482.393692" style="fill: #ff00ff; stroke: #ff00ff"/>
     <use xlink:href="#mf3279dfb35" x="224.256198" y="472.269346" style="fill: #ff00ff; stroke: #ff00ff"/>
     <use xlink:href="#mf3279dfb35" x="245.008264" y="462.067959" style="fill: #ff00ff; stroke: #ff00ff"/>
     <use xlink:href="#mf3279dfb35" x="265.760331" y="451.748529" style="fill: #ff00ff; stroke: #ff00ff"/>
     <use xlink:href="#mf3279dfb35" x="286.512397" y="441.266885" style="fill: #ff00ff; stroke: #ff00ff"/>
     <use xlink:href="#mf3279dfb35" x="307.264463" y="430.574287" style="fill: #ff00ff; stroke: #ff00ff"/>
     <use xlink:href="#mf3279dfb35" x="328.016529" y="419.615654" style="fill: #ff00ff; stroke: #ff00ff"/>
     <use xlink:href="#mf3279dfb35" x="348.768595" y="408.32726" style="fill: #ff00ff; stroke: #ff00ff"/>
     <use xlink:href="#mf3279dfb35" x="369.520661" y="396.633585" style="fill: #ff00ff; stroke: #ff00ff"/>
     <use xlink:href="#mf3279dfb35" x="390.272727" y="384.442886" style="fill: #ff00ff; stroke: #ff00ff"/>
     <use xlink:href="#mf3279dfb35" x="411.024793" y="371.640707" style="fill: #ff00ff; stroke: #ff00ff"/>
     <use xlink:href="#mf3279dfb35" x="431.77686" y="358.08" style="fill: #ff00ff; stroke: #ff00ff"/>
     <use xlink:href="#mf3279dfb35" x="452.528926" y="343.565342" style="fill: #ff00ff; stroke: #ff00ff"/>
     <use xlink:href="#mf3279dfb35" x="473.280992" y="327.826277" style="fill: #ff00ff; stroke: #ff00ff"/>
     <use xlink:href="#mf3279dfb35" x="494.033058" y="310.468976" style="fill: #ff00ff; stroke: #ff00ff"/>
     <use xlink:href="#mf3279dfb35" x="514.785124" y="290.88" style="fill: #ff00ff; stroke: #ff00ff"/>
     <use xlink:href="#mf3279dfb35" x="535.53719" y="268.007976" style="fill: #ff00ff; stroke: #ff00ff"/>
     <use xlink:href="#mf3279dfb35" x="556.289256" y="239.758673" style="fill: #ff00ff; stroke: #ff00ff"/>
     <use xlink:href="#mf3279dfb35" x="577.041322" y="200.584379" style="fill: #ff00ff; stroke: #ff00ff"/>
     <use xlink:href="#mf3279dfb35" x="597.793388" y="89.28" style="fill: #ff00ff; stroke: #ff00ff"/>
    </g>
   </g>
   <g id="PathCollection_3">
    <defs>
     <path id="m38d675c1a1" d="M 0 3 
C 0.795609 3 1.55874 2.683901 2.12132 2.12132 
C 2.683901 1.55874 3 0.795609 3 0 
C 3 -0.795609 2.683901 -1.55874 2.12132 -2.12132 
C 1.55874 -2.683901 0.795609 -3 0 -3 
C -0.795609 -3 -1.55874 -2.683901 -2.12132 -2.12132 
C -2.683901 -1.55874 -3 -0.795609 -3 0 
C -3 0.795609 -2.683901 1.55874 -2.12132 2.12132 
C -1.55874 2.683901 -0.795609 3 0 3 
z
" style="stroke: #000000"/>
    </defs>
    <g clip-path="url(#p52a878747e)">
     <use xlink:href="#m38d675c1a1" x="182.752066" y="492.48" style="stroke: #000000"/>
     <use xlink:href="#m38d675c1a1" x="203.504132" y="476.638229" style="stroke: #000000"/>
     <use xlink:href="#m38d675c1a1" x="224.256198" y="460.747472" style="stroke: #000000"/>
     <use xlink:href="#m38d675c1a1" x="245.008264" y="444.758135" style="stroke: #000000"/>
     <use xlink:href="#m38d675c1a1" x="265.760331" y="428.619394" style="stroke: #000000"/>
     <use xlink:href="#m38d675c1a1" x="286.512397" y="412.278533" style="stroke: #000000"/>
     <use xlink:href="#m38d675c1a1" x="307.264463" y="395.680244" style="stroke: #000000"/>
     <use xlink:href="#m38d675c1a1" x="328.016529" y="378.765839" style="stroke: #000000"/>
     <use xlink:href="#m38d675c1a1" x="348.768595" y="361.472378" style="stroke: #000000"/>
     <use xlink:href="#m38d675c1a1" x="369.520661" y="343.731667" style="stroke: #000000"/>
     <use xlink:href="#m38d675c1a1" x="390.272727" y="325.469092" style="stroke: #000000"/>
     <use xlink:href="#m38d675c1a1" x="411.024793" y="306.602254" style="stroke: #000000"/>
     <use xlink:href="#m38d675c1a1" x="431.77686" y="287.039339" style="stroke: #000000"/>
     <use xlink:href="#m38d675c1a1" x="452.528926" y="266.677151" style="stroke: #000000"/>
     <use xlink:href="#m38d675c1a1" x="473.280992" y="245.398722" style="stroke: #000000"/>
     <use xlink:href="#m38d675c1a1" x="494.033058" y="223.070373" style="stroke: #000000"/>
     <use xlink:href="#m38d675c1a1" x="514.785124" y="199.538053" style="stroke: #000000"/>
     <use xlink:href="#m38d675c1a1" x="535.53719" y="174.62275" style="stroke: #000000"/>
     <use xlink:href="#m38d675c1a1" x="556.289256" y="148.114668" style="stroke: #000000"/>
     <use xlink:href="#m38d675c1a1" x="577.041322" y="119.765754" style="stroke: #000000"/>
     <use xlink:href="#m38d675c1a1" x="597.793388" y="89.28" style="stroke: #000000"/>
    </g>
   </g>
   <g id="matplotlib.axis_1">
    <g id="xtick_1">
     <g id="line2d_1">
      <path d="M 182.752066 512.64 
L 182.752066 69.12 
" clip-path="url(#p52a878747e)" style="fill: none; stroke: #b0b0b0; stroke-width: 0.8; stroke-linecap: square"/>
     </g>
     <g id="line2d_2">
      <defs>
       <path id="mea2c4ced5a" d="M 0 0 
L 0 3.5 
" style="stroke: #000000; stroke-width: 0.8"/>
      </defs>
      <g>
       <use xlink:href="#mea2c4ced5a" x="182.752066" y="512.64" style="stroke: #000000; stroke-width: 0.8"/>
      </g>
     </g>
     <g id="text_1">
      <!-- 0.0 -->
      <g transform="translate(166.848941 534.836875) scale(0.2 -0.2)">
       <defs>
        <path id="DejaVuSans-30" d="M 2034 4250 
Q 1547 4250 1301 3770 
Q 1056 3291 1056 2328 
Q 1056 1369 1301 889 
Q 1547 409 2034 409 
Q 2525 409 2770 889 
Q 3016 1369 3016 2328 
Q 3016 3291 2770 3770 
Q 2525 4250 2034 4250 
z
M 2034 4750 
Q 2819 4750 3233 4129 
Q 3647 3509 3647 2328 
Q 3647 1150 3233 529 
Q 2819 -91 2034 -91 
Q 1250 -91 836 529 
Q 422 1150 422 2328 
Q 422 3509 836 4129 
Q 1250 4750 2034 4750 
z
" transform="scale(0.015625)"/>
        <path id="DejaVuSans-2e" d="M 684 794 
L 1344 794 
L 1344 0 
L 684 0 
L 684 794 
z
" transform="scale(0.015625)"/>
       </defs>
       <use xlink:href="#DejaVuSans-30"/>
       <use xlink:href="#DejaVuSans-2e" x="63.623047"/>
       <use xlink:href="#DejaVuSans-30" x="95.410156"/>
      </g>
     </g>
    </g>
    <g id="xtick_2">
     <g id="line2d_3">
      <path d="M 265.760331 512.64 
L 265.760331 69.12 
" clip-path="url(#p52a878747e)" style="fill: none; stroke: #b0b0b0; stroke-width: 0.8; stroke-linecap: square"/>
     </g>
     <g id="line2d_4">
      <g>
       <use xlink:href="#mea2c4ced5a" x="265.760331" y="512.64" style="stroke: #000000; stroke-width: 0.8"/>
      </g>
     </g>
     <g id="text_2">
      <!-- 0.2 -->
      <g transform="translate(249.857206 534.836875) scale(0.2 -0.2)">
       <defs>
        <path id="DejaVuSans-32" d="M 1228 531 
L 3431 531 
L 3431 0 
L 469 0 
L 469 531 
Q 828 903 1448 1529 
Q 2069 2156 2228 2338 
Q 2531 2678 2651 2914 
Q 2772 3150 2772 3378 
Q 2772 3750 2511 3984 
Q 2250 4219 1831 4219 
Q 1534 4219 1204 4116 
Q 875 4013 500 3803 
L 500 4441 
Q 881 4594 1212 4672 
Q 1544 4750 1819 4750 
Q 2544 4750 2975 4387 
Q 3406 4025 3406 3419 
Q 3406 3131 3298 2873 
Q 3191 2616 2906 2266 
Q 2828 2175 2409 1742 
Q 1991 1309 1228 531 
z
" transform="scale(0.015625)"/>
       </defs>
       <use xlink:href="#DejaVuSans-30"/>
       <use xlink:href="#DejaVuSans-2e" x="63.623047"/>
       <use xlink:href="#DejaVuSans-32" x="95.410156"/>
      </g>
     </g>
    </g>
    <g id="xtick_3">
     <g id="line2d_5">
      <path d="M 348.768595 512.64 
L 348.768595 69.12 
" clip-path="url(#p52a878747e)" style="fill: none; stroke: #b0b0b0; stroke-width: 0.8; stroke-linecap: square"/>
     </g>
     <g id="line2d_6">
      <g>
       <use xlink:href="#mea2c4ced5a" x="348.768595" y="512.64" style="stroke: #000000; stroke-width: 0.8"/>
      </g>
     </g>
     <g id="text_3">
      <!-- 0.4 -->
      <g transform="translate(332.86547 534.836875) scale(0.2 -0.2)">
       <defs>
        <path id="DejaVuSans-34" d="M 2419 4116 
L 825 1625 
L 2419 1625 
L 2419 4116 
z
M 2253 4666 
L 3047 4666 
L 3047 1625 
L 3713 1625 
L 3713 1100 
L 3047 1100 
L 3047 0 
L 2419 0 
L 2419 1100 
L 313 1100 
L 313 1709 
L 2253 4666 
z
" transform="scale(0.015625)"/>
       </defs>
       <use xlink:href="#DejaVuSans-30"/>
       <use xlink:href="#DejaVuSans-2e" x="63.623047"/>
       <use xlink:href="#DejaVuSans-34" x="95.410156"/>
      </g>
     </g>
    </g>
    <g id="xtick_4">
     <g id="line2d_7">
      <path d="M 431.77686 512.64 
L 431.77686 69.12 
" clip-path="url(#p52a878747e)" style="fill: none; stroke: #b0b0b0; stroke-width: 0.8; stroke-linecap: square"/>
     </g>
     <g id="line2d_8">
      <g>
       <use xlink:href="#mea2c4ced5a" x="431.77686" y="512.64" style="stroke: #000000; stroke-width: 0.8"/>
      </g>
     </g>
     <g id="text_4">
      <!-- 0.6 -->
      <g transform="translate(415.873735 534.836875) scale(0.2 -0.2)">
       <defs>
        <path id="DejaVuSans-36" d="M 2113 2584 
Q 1688 2584 1439 2293 
Q 1191 2003 1191 1497 
Q 1191 994 1439 701 
Q 1688 409 2113 409 
Q 2538 409 2786 701 
Q 3034 994 3034 1497 
Q 3034 2003 2786 2293 
Q 2538 2584 2113 2584 
z
M 3366 4563 
L 3366 3988 
Q 3128 4100 2886 4159 
Q 2644 4219 2406 4219 
Q 1781 4219 1451 3797 
Q 1122 3375 1075 2522 
Q 1259 2794 1537 2939 
Q 1816 3084 2150 3084 
Q 2853 3084 3261 2657 
Q 3669 2231 3669 1497 
Q 3669 778 3244 343 
Q 2819 -91 2113 -91 
Q 1303 -91 875 529 
Q 447 1150 447 2328 
Q 447 3434 972 4092 
Q 1497 4750 2381 4750 
Q 2619 4750 2861 4703 
Q 3103 4656 3366 4563 
z
" transform="scale(0.015625)"/>
       </defs>
       <use xlink:href="#DejaVuSans-30"/>
       <use xlink:href="#DejaVuSans-2e" x="63.623047"/>
       <use xlink:href="#DejaVuSans-36" x="95.410156"/>
      </g>
     </g>
    </g>
    <g id="xtick_5">
     <g id="line2d_9">
      <path d="M 514.785124 512.64 
L 514.785124 69.12 
" clip-path="url(#p52a878747e)" style="fill: none; stroke: #b0b0b0; stroke-width: 0.8; stroke-linecap: square"/>
     </g>
     <g id="line2d_10">
      <g>
       <use xlink:href="#mea2c4ced5a" x="514.785124" y="512.64" style="stroke: #000000; stroke-width: 0.8"/>
      </g>
     </g>
     <g id="text_5">
      <!-- 0.8 -->
      <g transform="translate(498.881999 534.836875) scale(0.2 -0.2)">
       <defs>
        <path id="DejaVuSans-38" d="M 2034 2216 
Q 1584 2216 1326 1975 
Q 1069 1734 1069 1313 
Q 1069 891 1326 650 
Q 1584 409 2034 409 
Q 2484 409 2743 651 
Q 3003 894 3003 1313 
Q 3003 1734 2745 1975 
Q 2488 2216 2034 2216 
z
M 1403 2484 
Q 997 2584 770 2862 
Q 544 3141 544 3541 
Q 544 4100 942 4425 
Q 1341 4750 2034 4750 
Q 2731 4750 3128 4425 
Q 3525 4100 3525 3541 
Q 3525 3141 3298 2862 
Q 3072 2584 2669 2484 
Q 3125 2378 3379 2068 
Q 3634 1759 3634 1313 
Q 3634 634 3220 271 
Q 2806 -91 2034 -91 
Q 1263 -91 848 271 
Q 434 634 434 1313 
Q 434 1759 690 2068 
Q 947 2378 1403 2484 
z
M 1172 3481 
Q 1172 3119 1398 2916 
Q 1625 2713 2034 2713 
Q 2441 2713 2670 2916 
Q 2900 3119 2900 3481 
Q 2900 3844 2670 4047 
Q 2441 4250 2034 4250 
Q 1625 4250 1398 4047 
Q 1172 3844 1172 3481 
z
" transform="scale(0.015625)"/>
       </defs>
       <use xlink:href="#DejaVuSans-30"/>
       <use xlink:href="#DejaVuSans-2e" x="63.623047"/>
       <use xlink:href="#DejaVuSans-38" x="95.410156"/>
      </g>
     </g>
    </g>
    <g id="xtick_6">
     <g id="line2d_11">
      <path d="M 597.793388 512.64 
L 597.793388 69.12 
" clip-path="url(#p52a878747e)" style="fill: none; stroke: #b0b0b0; stroke-width: 0.8; stroke-linecap: square"/>
     </g>
     <g id="line2d_12">
      <g>
       <use xlink:href="#mea2c4ced5a" x="597.793388" y="512.64" style="stroke: #000000; stroke-width: 0.8"/>
      </g>
     </g>
     <g id="text_6">
      <!-- 1.0 -->
      <g transform="translate(581.890263 534.836875) scale(0.2 -0.2)">
       <defs>
        <path id="DejaVuSans-31" d="M 794 531 
L 1825 531 
L 1825 4091 
L 703 3866 
L 703 4441 
L 1819 4666 
L 2450 4666 
L 2450 531 
L 3481 531 
L 3481 0 
L 794 0 
L 794 531 
z
" transform="scale(0.015625)"/>
       </defs>
       <use xlink:href="#DejaVuSans-31"/>
       <use xlink:href="#DejaVuSans-2e" x="63.623047"/>
       <use xlink:href="#DejaVuSans-30" x="95.410156"/>
      </g>
     </g>
    </g>
    <g id="text_7">
     <!-- $X = x/L$ -->
     <g transform="translate(352.872727 559.712813) scale(0.22 -0.22)">
      <defs>
       <path id="DejaVuSans-Oblique-58" d="M 878 4666 
L 1516 4666 
L 2316 2981 
L 3763 4666 
L 4500 4666 
L 2578 2438 
L 3738 0 
L 3103 0 
L 2163 1966 
L 459 0 
L -275 0 
L 1906 2509 
L 878 4666 
z
" transform="scale(0.015625)"/>
       <path id="DejaVuSans-3d" d="M 678 2906 
L 4684 2906 
L 4684 2381 
L 678 2381 
L 678 2906 
z
M 678 1631 
L 4684 1631 
L 4684 1100 
L 678 1100 
L 678 1631 
z
" transform="scale(0.015625)"/>
       <path id="DejaVuSans-Oblique-78" d="M 3841 3500 
L 2234 1784 
L 3219 0 
L 2559 0 
L 1819 1388 
L 531 0 
L -166 0 
L 1556 1844 
L 641 3500 
L 1300 3500 
L 1972 2234 
L 3144 3500 
L 3841 3500 
z
" transform="scale(0.015625)"/>
       <path id="DejaVuSans-2f" d="M 1625 4666 
L 2156 4666 
L 531 -594 
L 0 -594 
L 1625 4666 
z
" transform="scale(0.015625)"/>
       <path id="DejaVuSans-Oblique-4c" d="M 1075 4666 
L 1709 4666 
L 909 525 
L 3181 525 
L 3078 0 
L 172 0 
L 1075 4666 
z
" transform="scale(0.015625)"/>
      </defs>
      <use xlink:href="#DejaVuSans-Oblique-58" transform="translate(0 0.09375)"/>
      <use xlink:href="#DejaVuSans-3d" transform="translate(87.988281 0.09375)"/>
      <use xlink:href="#DejaVuSans-Oblique-78" transform="translate(191.259766 0.09375)"/>
      <use xlink:href="#DejaVuSans-2f" transform="translate(250.439453 0.09375)"/>
      <use xlink:href="#DejaVuSans-Oblique-4c" transform="translate(284.130859 0.09375)"/>
     </g>
    </g>
   </g>
   <g id="matplotlib.axis_2">
    <g id="ytick_1">
     <g id="line2d_13">
      <path d="M 162 492.48 
L 618.545455 492.48 
" clip-path="url(#p52a878747e)" style="fill: none; stroke: #b0b0b0; stroke-width: 0.8; stroke-linecap: square"/>
     </g>
     <g id="line2d_14">
      <defs>
       <path id="m7e1bcb2569" d="M 0 0 
L -3.5 0 
" style="stroke: #000000; stroke-width: 0.8"/>
      </defs>
      <g>
       <use xlink:href="#m7e1bcb2569" x="162" y="492.48" style="stroke: #000000; stroke-width: 0.8"/>
      </g>
     </g>
     <g id="text_8">
      <!-- 0.0 -->
      <g transform="translate(123.19375 500.078438) scale(0.2 -0.2)">
       <use xlink:href="#DejaVuSans-30"/>
       <use xlink:href="#DejaVuSans-2e" x="63.623047"/>
       <use xlink:href="#DejaVuSans-30" x="95.410156"/>
      </g>
     </g>
    </g>
    <g id="ytick_2">
     <g id="line2d_15">
      <path d="M 162 411.84 
L 618.545455 411.84 
" clip-path="url(#p52a878747e)" style="fill: none; stroke: #b0b0b0; stroke-width: 0.8; stroke-linecap: square"/>
     </g>
     <g id="line2d_16">
      <g>
       <use xlink:href="#m7e1bcb2569" x="162" y="411.84" style="stroke: #000000; stroke-width: 0.8"/>
      </g>
     </g>
     <g id="text_9">
      <!-- 0.2 -->
      <g transform="translate(123.19375 419.438437) scale(0.2 -0.2)">
       <use xlink:href="#DejaVuSans-30"/>
       <use xlink:href="#DejaVuSans-2e" x="63.623047"/>
       <use xlink:href="#DejaVuSans-32" x="95.410156"/>
      </g>
     </g>
    </g>
    <g id="ytick_3">
     <g id="line2d_17">
      <path d="M 162 331.2 
L 618.545455 331.2 
" clip-path="url(#p52a878747e)" style="fill: none; stroke: #b0b0b0; stroke-width: 0.8; stroke-linecap: square"/>
     </g>
     <g id="line2d_18">
      <g>
       <use xlink:href="#m7e1bcb2569" x="162" y="331.2" style="stroke: #000000; stroke-width: 0.8"/>
      </g>
     </g>
     <g id="text_10">
      <!-- 0.4 -->
      <g transform="translate(123.19375 338.798437) scale(0.2 -0.2)">
       <use xlink:href="#DejaVuSans-30"/>
       <use xlink:href="#DejaVuSans-2e" x="63.623047"/>
       <use xlink:href="#DejaVuSans-34" x="95.410156"/>
      </g>
     </g>
    </g>
    <g id="ytick_4">
     <g id="line2d_19">
      <path d="M 162 250.56 
L 618.545455 250.56 
" clip-path="url(#p52a878747e)" style="fill: none; stroke: #b0b0b0; stroke-width: 0.8; stroke-linecap: square"/>
     </g>
     <g id="line2d_20">
      <g>
       <use xlink:href="#m7e1bcb2569" x="162" y="250.56" style="stroke: #000000; stroke-width: 0.8"/>
      </g>
     </g>
     <g id="text_11">
      <!-- 0.6 -->
      <g transform="translate(123.19375 258.158437) scale(0.2 -0.2)">
       <use xlink:href="#DejaVuSans-30"/>
       <use xlink:href="#DejaVuSans-2e" x="63.623047"/>
       <use xlink:href="#DejaVuSans-36" x="95.410156"/>
      </g>
     </g>
    </g>
    <g id="ytick_5">
     <g id="line2d_21">
      <path d="M 162 169.92 
L 618.545455 169.92 
" clip-path="url(#p52a878747e)" style="fill: none; stroke: #b0b0b0; stroke-width: 0.8; stroke-linecap: square"/>
     </g>
     <g id="line2d_22">
      <g>
       <use xlink:href="#m7e1bcb2569" x="162" y="169.92" style="stroke: #000000; stroke-width: 0.8"/>
      </g>
     </g>
     <g id="text_12">
      <!-- 0.8 -->
      <g transform="translate(123.19375 177.518438) scale(0.2 -0.2)">
       <use xlink:href="#DejaVuSans-30"/>
       <use xlink:href="#DejaVuSans-2e" x="63.623047"/>
       <use xlink:href="#DejaVuSans-38" x="95.410156"/>
      </g>
     </g>
    </g>
    <g id="ytick_6">
     <g id="line2d_23">
      <path d="M 162 89.28 
L 618.545455 89.28 
" clip-path="url(#p52a878747e)" style="fill: none; stroke: #b0b0b0; stroke-width: 0.8; stroke-linecap: square"/>
     </g>
     <g id="line2d_24">
      <g>
       <use xlink:href="#m7e1bcb2569" x="162" y="89.28" style="stroke: #000000; stroke-width: 0.8"/>
      </g>
     </g>
     <g id="text_13">
      <!-- 1.0 -->
      <g transform="translate(123.19375 96.878437) scale(0.2 -0.2)">
       <use xlink:href="#DejaVuSans-31"/>
       <use xlink:href="#DejaVuSans-2e" x="63.623047"/>
       <use xlink:href="#DejaVuSans-30" x="95.410156"/>
      </g>
     </g>
    </g>
    <g id="text_14">
     <!-- $M = v/c_s$ -->
     <g transform="translate(114.618437 334.55) rotate(-90) scale(0.22 -0.22)">
      <defs>
       <path id="DejaVuSans-Oblique-4d" d="M 1081 4666 
L 2028 4666 
L 2572 1522 
L 4378 4666 
L 5350 4666 
L 4441 0 
L 3828 0 
L 4622 4091 
L 2791 897 
L 2175 897 
L 1581 4103 
L 788 0 
L 172 0 
L 1081 4666 
z
" transform="scale(0.015625)"/>
       <path id="DejaVuSans-Oblique-76" d="M 459 3500 
L 1069 3500 
L 1581 525 
L 3256 3500 
L 3866 3500 
L 1875 0 
L 1100 0 
L 459 3500 
z
" transform="scale(0.015625)"/>
       <path id="DejaVuSans-Oblique-63" d="M 3431 3366 
L 3316 2797 
Q 3109 2947 2876 3022 
Q 2644 3097 2394 3097 
Q 2119 3097 1870 3000 
Q 1622 2903 1453 2725 
Q 1184 2453 1037 2087 
Q 891 1722 891 1331 
Q 891 859 1127 628 
Q 1363 397 1844 397 
Q 2081 397 2348 469 
Q 2616 541 2906 684 
L 2797 116 
Q 2547 13 2283 -39 
Q 2019 -91 1741 -91 
Q 1044 -91 669 257 
Q 294 606 294 1253 
Q 294 1797 489 2255 
Q 684 2713 1069 3078 
Q 1331 3328 1684 3456 
Q 2038 3584 2456 3584 
Q 2700 3584 2940 3529 
Q 3181 3475 3431 3366 
z
" transform="scale(0.015625)"/>
       <path id="DejaVuSans-Oblique-73" d="M 3200 3397 
L 3091 2853 
Q 2863 2978 2609 3040 
Q 2356 3103 2088 3103 
Q 1634 3103 1373 2948 
Q 1113 2794 1113 2528 
Q 1113 2219 1719 2053 
Q 1766 2041 1788 2034 
L 1972 1978 
Q 2547 1819 2739 1644 
Q 2931 1469 2931 1166 
Q 2931 609 2489 259 
Q 2047 -91 1331 -91 
Q 1053 -91 747 -37 
Q 441 16 72 128 
L 184 722 
Q 500 559 806 475 
Q 1113 391 1394 391 
Q 1816 391 2080 572 
Q 2344 753 2344 1031 
Q 2344 1331 1650 1516 
L 1591 1531 
L 1394 1581 
Q 956 1697 753 1886 
Q 550 2075 550 2369 
Q 550 2928 970 3256 
Q 1391 3584 2113 3584 
Q 2397 3584 2667 3537 
Q 2938 3491 3200 3397 
z
" transform="scale(0.015625)"/>
      </defs>
      <use xlink:href="#DejaVuSans-Oblique-4d" transform="translate(0 0.09375)"/>
      <use xlink:href="#DejaVuSans-3d" transform="translate(105.761719 0.09375)"/>
      <use xlink:href="#DejaVuSans-Oblique-76" transform="translate(209.033203 0.09375)"/>
      <use xlink:href="#DejaVuSans-2f" transform="translate(268.212891 0.09375)"/>
      <use xlink:href="#DejaVuSans-Oblique-63" transform="translate(301.904297 0.09375)"/>
      <use xlink:href="#DejaVuSans-Oblique-73" transform="translate(356.884766 -16.3125) scale(0.7)"/>
     </g>
    </g>
   </g>
   <g id="line2d_25">
    <path d="M 182.752066 492.475099 
L 239.197686 461.048504 
L 269.080661 444.145997 
L 294.398182 429.559027 
L 315.150248 417.355373 
L 334.242149 405.880301 
L 351.673884 395.152358 
L 368.275537 384.671578 
L 383.632066 374.709715 
L 398.158512 365.012352 
L 411.439835 355.877856 
L 423.891074 347.048582 
L 435.512231 338.543885 
L 446.718347 330.069427 
L 457.509421 321.620371 
L 467.885455 313.192685 
L 477.431405 305.140781 
L 486.147273 297.504979 
L 494.448099 289.946995 
L 502.333884 282.474086 
L 509.804628 275.09472 
L 516.860331 267.820992 
L 523.500992 260.666208 
L 529.726612 253.647302 
L 535.952231 246.281242 
L 541.76281 239.044205 
L 547.158347 231.958771 
L 552.138843 225.053568 
L 556.704298 218.362867 
L 561.269752 211.264128 
L 565.420165 204.389165 
L 569.155537 197.788781 
L 572.890909 190.713427 
L 576.21124 183.935232 
L 579.116529 177.535238 
L 582.021818 170.584877 
L 584.512066 164.067955 
L 587.002314 156.871238 
L 589.077521 150.174086 
L 590.737686 144.188582 
L 592.397851 137.41321 
L 593.642975 131.583341 
L 594.888099 124.749907 
L 595.718182 119.301466 
L 596.548264 112.55593 
L 596.963306 108.294509 
L 597.378347 102.616243 
L 597.793388 89.28 
L 597.793388 89.28 
" clip-path="url(#p52a878747e)" style="fill: none; stroke: #d62728; stroke-width: 2; stroke-linecap: square"/>
   </g>
   <g id="line2d_26">
    <path d="M 182.752066 492.47575 
L 238.367603 465.338915 
L 267.835537 450.704045 
L 291.077851 438.929798 
L 311.829917 428.183712 
L 331.33686 417.82873 
L 348.768595 408.322483 
L 365.370248 399.003725 
L 380.311736 390.357907 
L 394.008099 382.182221 
L 407.289421 373.99081 
L 419.32562 366.311462 
L 430.946777 358.633325 
L 441.737851 351.24025 
L 452.113884 343.860077 
L 461.659835 336.804077 
L 470.790744 329.784365 
L 479.506612 322.804166 
L 487.392397 316.223136 
L 495.278182 309.35664 
L 502.748926 302.552237 
L 509.804628 295.822022 
L 516.445289 289.180512 
L 522.670909 282.64585 
L 528.481488 276.239002 
L 533.877025 269.986579 
L 539.272562 263.398694 
L 544.253058 256.974912 
L 548.818512 250.753133 
L 553.383967 244.161216 
L 557.53438 237.793882 
L 561.684793 231.007622 
L 565.420165 224.476186 
L 569.155537 217.463731 
L 572.475868 210.744 
L 575.381157 204.409325 
L 578.286446 197.555328 
L 580.776694 191.173075 
L 583.266942 184.204166 
L 585.342149 177.833203 
L 587.417355 170.799782 
L 589.492562 162.888998 
L 591.152727 155.689056 
L 592.812893 147.367411 
L 594.058017 140.022317 
L 595.30314 131.144256 
L 596.133223 123.745133 
L 596.963306 113.884474 
L 597.378347 106.649856 
L 597.793388 89.28 
L 597.793388 89.28 
" clip-path="url(#p52a878747e)" style="fill: none; stroke: #2ca02c; stroke-width: 2; stroke-linecap: square"/>
   </g>
   <g id="line2d_27">
    <path d="M 182.752066 492.477274 
L 235.877355 451.80599 
L 262.855041 430.886765 
L 285.267273 413.262893 
L 306.43438 396.34704 
L 325.526281 380.811341 
L 343.373058 366.005837 
L 359.974711 351.949478 
L 375.746281 338.308013 
L 390.272727 325.466093 
L 404.799174 312.327821 
L 418.910579 299.252448 
L 432.191901 286.636723 
L 444.64314 274.512499 
L 456.679339 262.495123 
L 468.300496 250.592256 
L 479.921653 238.370861 
L 491.127769 226.261152 
L 501.918843 214.274822 
L 512.294876 202.427194 
L 522.670909 190.239667 
L 532.631901 178.197293 
L 542.592893 165.795667 
L 552.138843 153.550483 
L 561.684793 140.927098 
L 570.815702 128.475475 
L 579.946612 115.628717 
L 588.662479 102.973075 
L 597.378347 89.906976 
L 597.793388 89.28 
L 597.793388 89.28 
" clip-path="url(#p52a878747e)" style="fill: none; stroke: #7f7f7f; stroke-width: 2; stroke-linecap: square"/>
   </g>
   <g id="patch_3">
    <path d="M 162 512.64 
L 162 69.12 
" style="fill: none; stroke: #000000; stroke-width: 0.8; stroke-linejoin: miter; stroke-linecap: square"/>
   </g>
   <g id="patch_4">
    <path d="M 618.545455 512.64 
L 618.545455 69.12 
" style="fill: none; stroke: #000000; stroke-width: 0.8; stroke-linejoin: miter; stroke-linecap: square"/>
   </g>
   <g id="patch_5">
    <path d="M 162 512.64 
L 618.545455 512.64 
" style="fill: none; stroke: #000000; stroke-width: 0.8; stroke-linejoin: miter; stroke-linecap: square"/>
   </g>
   <g id="patch_6">
    <path d="M 162 69.12 
L 618.545455 69.12 
" style="fill: none; stroke: #000000; stroke-width: 0.8; stroke-linejoin: miter; stroke-linecap: square"/>
   </g>
   <g id="text_15">
    <!-- A -->
    <g style="fill: #ff0000" transform="translate(473.280992 292.896) scale(0.16 -0.16)">
     <defs>
      <path id="DejaVuSans-41" d="M 2188 4044 
L 1331 1722 
L 3047 1722 
L 2188 4044 
z
M 1831 4666 
L 2547 4666 
L 4325 0 
L 3669 0 
L 3244 1197 
L 1141 1197 
L 716 0 
L 50 0 
L 1831 4666 
z
" transform="scale(0.015625)"/>
     </defs>
     <use xlink:href="#DejaVuSans-41"/>
    </g>
   </g>
   <g id="text_16">
    <!-- B -->
    <g style="fill: #008000" transform="translate(504.409091 315.072) scale(0.16 -0.16)">
     <defs>
      <path id="DejaVuSans-42" d="M 1259 2228 
L 1259 519 
L 2272 519 
Q 2781 519 3026 730 
Q 3272 941 3272 1375 
Q 3272 1813 3026 2020 
Q 2781 2228 2272 2228 
L 1259 2228 
z
M 1259 4147 
L 1259 2741 
L 2194 2741 
Q 2656 2741 2882 2914 
Q 3109 3088 3109 3444 
Q 3109 3797 2882 3972 
Q 2656 4147 2194 4147 
L 1259 4147 
z
M 628 4666 
L 2241 4666 
Q 2963 4666 3353 4366 
Q 3744 4066 3744 3513 
Q 3744 3084 3544 2831 
Q 3344 2578 2956 2516 
Q 3422 2416 3680 2098 
Q 3938 1781 3938 1306 
Q 3938 681 3513 340 
Q 3088 0 2303 0 
L 628 0 
L 628 4666 
z
" transform="scale(0.015625)"/>
     </defs>
     <use xlink:href="#DejaVuSans-42"/>
    </g>
   </g>
   <g id="text_17">
    <!-- C -->
    <g style="fill: #808080" transform="translate(448.378512 254.592) scale(0.16 -0.16)">
     <defs>
      <path id="DejaVuSans-43" d="M 4122 4306 
L 4122 3641 
Q 3803 3938 3442 4084 
Q 3081 4231 2675 4231 
Q 1875 4231 1450 3742 
Q 1025 3253 1025 2328 
Q 1025 1406 1450 917 
Q 1875 428 2675 428 
Q 3081 428 3442 575 
Q 3803 722 4122 1019 
L 4122 359 
Q 3791 134 3420 21 
Q 3050 -91 2638 -91 
Q 1578 -91 968 557 
Q 359 1206 359 2328 
Q 359 3453 968 4101 
Q 1578 4750 2638 4750 
Q 3056 4750 3426 4639 
Q 3797 4528 4122 4306 
z
" transform="scale(0.015625)"/>
     </defs>
     <use xlink:href="#DejaVuSans-43"/>
    </g>
   </g>
   <g id="text_18">
    <!-- M(X) -->
    <g transform="translate(362.335227 63.12) scale(0.24 -0.24)">
     <defs>
      <path id="DejaVuSans-4d" d="M 628 4666 
L 1569 4666 
L 2759 1491 
L 3956 4666 
L 4897 4666 
L 4897 0 
L 4281 0 
L 4281 4097 
L 3078 897 
L 2444 897 
L 1241 4097 
L 1241 0 
L 628 0 
L 628 4666 
z
" transform="scale(0.015625)"/>
      <path id="DejaVuSans-28" d="M 1984 4856 
Q 1566 4138 1362 3434 
Q 1159 2731 1159 2009 
Q 1159 1288 1364 580 
Q 1569 -128 1984 -844 
L 1484 -844 
Q 1016 -109 783 600 
Q 550 1309 550 2009 
Q 550 2706 781 3412 
Q 1013 4119 1484 4856 
L 1984 4856 
z
" transform="scale(0.015625)"/>
      <path id="DejaVuSans-58" d="M 403 4666 
L 1081 4666 
L 2241 2931 
L 3406 4666 
L 4084 4666 
L 2584 2425 
L 4184 0 
L 3506 0 
L 2194 1984 
L 872 0 
L 191 0 
L 1856 2491 
L 403 4666 
z
" transform="scale(0.015625)"/>
      <path id="DejaVuSans-29" d="M 513 4856 
L 1013 4856 
Q 1481 4119 1714 3412 
Q 1947 2706 1947 2009 
Q 1947 1309 1714 600 
Q 1481 -109 1013 -844 
L 513 -844 
Q 928 -128 1133 580 
Q 1338 1288 1338 2009 
Q 1338 2731 1133 3434 
Q 928 4138 513 4856 
z
" transform="scale(0.015625)"/>
     </defs>
     <use xlink:href="#DejaVuSans-4d"/>
     <use xlink:href="#DejaVuSans-28" x="86.279297"/>
     <use xlink:href="#DejaVuSans-58" x="125.292969"/>
     <use xlink:href="#DejaVuSans-29" x="193.798828"/>
    </g>
   </g>
   <g id="legend_1">
    <g id="patch_7">
     <path d="M 176 143.8325 
L 338.2125 143.8325 
Q 342.2125 143.8325 342.2125 139.8325 
L 342.2125 83.12 
Q 342.2125 79.12 338.2125 79.12 
L 176 79.12 
Q 172 79.12 172 83.12 
L 172 139.8325 
Q 172 143.8325 176 143.8325 
z
" style="fill: #ffffff; opacity: 0.8; stroke: #cccccc; stroke-linejoin: miter"/>
    </g>
    <g id="PathCollection_4">
     <g>
      <use xlink:href="#m38d675c1a1" x="200" y="97.066875" style="stroke: #000000"/>
     </g>
    </g>
    <g id="text_19">
     <!-- Analytical -->
     <g transform="translate(236 102.316875) scale(0.2 -0.2)">
      <defs>
       <path id="DejaVuSans-6e" d="M 3513 2113 
L 3513 0 
L 2938 0 
L 2938 2094 
Q 2938 2591 2744 2837 
Q 2550 3084 2163 3084 
Q 1697 3084 1428 2787 
Q 1159 2491 1159 1978 
L 1159 0 
L 581 0 
L 581 3500 
L 1159 3500 
L 1159 2956 
Q 1366 3272 1645 3428 
Q 1925 3584 2291 3584 
Q 2894 3584 3203 3211 
Q 3513 2838 3513 2113 
z
" transform="scale(0.015625)"/>
       <path id="DejaVuSans-61" d="M 2194 1759 
Q 1497 1759 1228 1600 
Q 959 1441 959 1056 
Q 959 750 1161 570 
Q 1363 391 1709 391 
Q 2188 391 2477 730 
Q 2766 1069 2766 1631 
L 2766 1759 
L 2194 1759 
z
M 3341 1997 
L 3341 0 
L 2766 0 
L 2766 531 
Q 2569 213 2275 61 
Q 1981 -91 1556 -91 
Q 1019 -91 701 211 
Q 384 513 384 1019 
Q 384 1609 779 1909 
Q 1175 2209 1959 2209 
L 2766 2209 
L 2766 2266 
Q 2766 2663 2505 2880 
Q 2244 3097 1772 3097 
Q 1472 3097 1187 3025 
Q 903 2953 641 2809 
L 641 3341 
Q 956 3463 1253 3523 
Q 1550 3584 1831 3584 
Q 2591 3584 2966 3190 
Q 3341 2797 3341 1997 
z
" transform="scale(0.015625)"/>
       <path id="DejaVuSans-6c" d="M 603 4863 
L 1178 4863 
L 1178 0 
L 603 0 
L 603 4863 
z
" transform="scale(0.015625)"/>
       <path id="DejaVuSans-79" d="M 2059 -325 
Q 1816 -950 1584 -1140 
Q 1353 -1331 966 -1331 
L 506 -1331 
L 506 -850 
L 844 -850 
Q 1081 -850 1212 -737 
Q 1344 -625 1503 -206 
L 1606 56 
L 191 3500 
L 800 3500 
L 1894 763 
L 2988 3500 
L 3597 3500 
L 2059 -325 
z
" transform="scale(0.015625)"/>
       <path id="DejaVuSans-74" d="M 1172 4494 
L 1172 3500 
L 2356 3500 
L 2356 3053 
L 1172 3053 
L 1172 1153 
Q 1172 725 1289 603 
Q 1406 481 1766 481 
L 2356 481 
L 2356 0 
L 1766 0 
Q 1100 0 847 248 
Q 594 497 594 1153 
L 594 3053 
L 172 3053 
L 172 3500 
L 594 3500 
L 594 4494 
L 1172 4494 
z
" transform="scale(0.015625)"/>
       <path id="DejaVuSans-69" d="M 603 3500 
L 1178 3500 
L 1178 0 
L 603 0 
L 603 3500 
z
M 603 4863 
L 1178 4863 
L 1178 4134 
L 603 4134 
L 603 4863 
z
" transform="scale(0.015625)"/>
       <path id="DejaVuSans-63" d="M 3122 3366 
L 3122 2828 
Q 2878 2963 2633 3030 
Q 2388 3097 2138 3097 
Q 1578 3097 1268 2742 
Q 959 2388 959 1747 
Q 959 1106 1268 751 
Q 1578 397 2138 397 
Q 2388 397 2633 464 
Q 2878 531 3122 666 
L 3122 134 
Q 2881 22 2623 -34 
Q 2366 -91 2075 -91 
Q 1284 -91 818 406 
Q 353 903 353 1747 
Q 353 2603 823 3093 
Q 1294 3584 2113 3584 
Q 2378 3584 2631 3529 
Q 2884 3475 3122 3366 
z
" transform="scale(0.015625)"/>
      </defs>
      <use xlink:href="#DejaVuSans-41"/>
      <use xlink:href="#DejaVuSans-6e" x="68.408203"/>
      <use xlink:href="#DejaVuSans-61" x="131.787109"/>
      <use xlink:href="#DejaVuSans-6c" x="193.066406"/>
      <use xlink:href="#DejaVuSans-79" x="220.849609"/>
      <use xlink:href="#DejaVuSans-74" x="280.029297"/>
      <use xlink:href="#DejaVuSans-69" x="319.238281"/>
      <use xlink:href="#DejaVuSans-63" x="347.021484"/>
      <use xlink:href="#DejaVuSans-61" x="402.001953"/>
      <use xlink:href="#DejaVuSans-6c" x="463.28125"/>
     </g>
    </g>
    <g id="line2d_28">
     <path d="M 180 124.673125 
L 200 124.673125 
L 220 124.673125 
" style="fill: none; stroke: #7f7f7f; stroke-width: 2; stroke-linecap: square"/>
    </g>
    <g id="text_20">
     <!-- FEM -->
     <g transform="translate(236 131.673125) scale(0.2 -0.2)">
      <defs>
       <path id="DejaVuSans-46" d="M 628 4666 
L 3309 4666 
L 3309 4134 
L 1259 4134 
L 1259 2759 
L 3109 2759 
L 3109 2228 
L 1259 2228 
L 1259 0 
L 628 0 
L 628 4666 
z
" transform="scale(0.015625)"/>
       <path id="DejaVuSans-45" d="M 628 4666 
L 3578 4666 
L 3578 4134 
L 1259 4134 
L 1259 2753 
L 3481 2753 
L 3481 2222 
L 1259 2222 
L 1259 531 
L 3634 531 
L 3634 0 
L 628 0 
L 628 4666 
z
" transform="scale(0.015625)"/>
      </defs>
      <use xlink:href="#DejaVuSans-46"/>
      <use xlink:href="#DejaVuSans-45" x="57.519531"/>
      <use xlink:href="#DejaVuSans-4d" x="120.703125"/>
     </g>
    </g>
   </g>
  </g>
  <g id="axes_2">
   <g id="patch_8">
    <path d="M 709.854545 512.64 
L 1166.4 512.64 
L 1166.4 69.12 
L 709.854545 69.12 
z
" style="fill: #ffffff"/>
   </g>
   <g id="PathCollection_5">
    <g clip-path="url(#pf780fe09f2)">
     <use xlink:href="#m025dac2914" x="730.606612" y="89.28" style="fill: #0000ff; stroke: #0000ff"/>
     <use xlink:href="#m025dac2914" x="751.358678" y="89.937008" style="fill: #0000ff; stroke: #0000ff"/>
     <use xlink:href="#m025dac2914" x="772.110744" y="91.910191" style="fill: #0000ff; stroke: #0000ff"/>
     <use xlink:href="#m025dac2914" x="792.86281" y="95.206121" style="fill: #0000ff; stroke: #0000ff"/>
     <use xlink:href="#m025dac2914" x="813.614876" y="99.836111" style="fill: #0000ff; stroke: #0000ff"/>
     <use xlink:href="#m025dac2914" x="834.366942" y="105.816775" style="fill: #0000ff; stroke: #0000ff"/>
     <use xlink:href="#m025dac2914" x="855.119008" y="113.1709" style="fill: #0000ff; stroke: #0000ff"/>
     <use xlink:href="#m025dac2914" x="875.871074" y="121.928706" style="fill: #0000ff; stroke: #0000ff"/>
     <use xlink:href="#m025dac2914" x="896.62314" y="132.129654" style="fill: #0000ff; stroke: #0000ff"/>
     <use xlink:href="#m025dac2914" x="917.375207" y="143.825026" style="fill: #0000ff; stroke: #0000ff"/>
     <use xlink:href="#m025dac2914" x="938.127273" y="157.081658" style="fill: #0000ff; stroke: #0000ff"/>
     <use xlink:href="#m025dac2914" x="958.879339" y="171.98748" style="fill: #0000ff; stroke: #0000ff"/>
     <use xlink:href="#m025dac2914" x="979.631405" y="188.659976" style="fill: #0000ff; stroke: #0000ff"/>
     <use xlink:href="#m025dac2914" x="1000.383471" y="207.259643" style="fill: #0000ff; stroke: #0000ff"/>
     <use xlink:href="#m025dac2914" x="1021.135537" y="228.012582" style="fill: #0000ff; stroke: #0000ff"/>
     <use xlink:href="#m025dac2914" x="1041.887603" y="251.251042" style="fill: #0000ff; stroke: #0000ff"/>
     <use xlink:href="#m025dac2914" x="1062.639669" y="277.493216" style="fill: #0000ff; stroke: #0000ff"/>
     <use xlink:href="#m025dac2914" x="1083.391736" y="307.621871" style="fill: #0000ff; stroke: #0000ff"/>
     <use xlink:href="#m025dac2914" x="1104.143802" y="343.371963" style="fill: #0000ff; stroke: #0000ff"/>
     <use xlink:href="#m025dac2914" x="1124.895868" y="389.24041" style="fill: #0000ff; stroke: #0000ff"/>
     <use xlink:href="#m025dac2914" x="1145.647934" y="492.48" style="fill: #0000ff; stroke: #0000ff"/>
    </g>
   </g>
   <g id="PathCollection_6">
    <g clip-path="url(#pf780fe09f2)">
     <use xlink:href="#mf3279dfb35" x="730.606612" y="89.28" style="fill: #ff00ff; stroke: #ff00ff"/>
     <use xlink:href="#mf3279dfb35" x="751.358678" y="89.784315" style="fill: #ff00ff; stroke: #ff00ff"/>
     <use xlink:href="#mf3279dfb35" x="772.110744" y="91.301065" style="fill: #ff00ff; stroke: #ff00ff"/>
     <use xlink:href="#mf3279dfb35" x="792.86281" y="93.841806" style="fill: #ff00ff; stroke: #ff00ff"/>
     <use xlink:href="#mf3279dfb35" x="813.614876" y="97.426294" style="fill: #ff00ff; stroke: #ff00ff"/>
     <use xlink:href="#mf3279dfb35" x="834.366942" y="102.083279" style="fill: #ff00ff; stroke: #ff00ff"/>
     <use xlink:href="#mf3279dfb35" x="855.119008" y="107.851714" style="fill: #ff00ff; stroke: #ff00ff"/>
     <use xlink:href="#mf3279dfb35" x="875.871074" y="114.782521" style="fill: #ff00ff; stroke: #ff00ff"/>
     <use xlink:href="#mf3279dfb35" x="896.62314" y="122.941096" style="fill: #ff00ff; stroke: #ff00ff"/>
     <use xlink:href="#mf3279dfb35" x="917.375207" y="132.410887" style="fill: #ff00ff; stroke: #ff00ff"/>
     <use xlink:href="#mf3279dfb35" x="938.127273" y="143.298557" style="fill: #ff00ff; stroke: #ff00ff"/>
     <use xlink:href="#mf3279dfb35" x="958.879339" y="155.741611" style="fill: #ff00ff; stroke: #ff00ff"/>
     <use xlink:href="#mf3279dfb35" x="979.631405" y="169.92" style="fill: #ff00ff; stroke: #ff00ff"/>
     <use xlink:href="#mf3279dfb35" x="1000.383471" y="186.074527" style="fill: #ff00ff; stroke: #ff00ff"/>
     <use xlink:href="#mf3279dfb35" x="1021.135537" y="204.537606" style="fill: #ff00ff; stroke: #ff00ff"/>
     <use xlink:href="#mf3279dfb35" x="1041.887603" y="225.788268" style="fill: #ff00ff; stroke: #ff00ff"/>
     <use xlink:href="#mf3279dfb35" x="1062.639669" y="250.56" style="fill: #ff00ff; stroke: #ff00ff"/>
     <use xlink:href="#mf3279dfb35" x="1083.391736" y="280.08122" style="fill: #ff00ff; stroke: #ff00ff"/>
     <use xlink:href="#mf3279dfb35" x="1104.143802" y="316.729195" style="fill: #ff00ff; stroke: #ff00ff"/>
     <use xlink:href="#mf3279dfb35" x="1124.895868" y="366.58084" style="fill: #ff00ff; stroke: #ff00ff"/>
     <use xlink:href="#mf3279dfb35" x="1145.647934" y="492.48" style="fill: #ff00ff; stroke: #ff00ff"/>
    </g>
   </g>
   <g id="PathCollection_7">
    <g clip-path="url(#pf780fe09f2)">
     <use xlink:href="#m38d675c1a1" x="730.606612" y="89.28" style="stroke: #000000"/>
     <use xlink:href="#m38d675c1a1" x="751.358678" y="90.522931" style="stroke: #000000"/>
     <use xlink:href="#m38d675c1a1" x="772.110744" y="94.244061" style="stroke: #000000"/>
     <use xlink:href="#m38d675c1a1" x="792.86281" y="100.420448" style="stroke: #000000"/>
     <use xlink:href="#m38d675c1a1" x="813.614876" y="109.014013" style="stroke: #000000"/>
     <use xlink:href="#m38d675c1a1" x="834.366942" y="119.971772" style="stroke: #000000"/>
     <use xlink:href="#m38d675c1a1" x="855.119008" y="133.226169" style="stroke: #000000"/>
     <use xlink:href="#m38d675c1a1" x="875.871074" y="148.695486" style="stroke: #000000"/>
     <use xlink:href="#m38d675c1a1" x="896.62314" y="166.284348" style="stroke: #000000"/>
     <use xlink:href="#m38d675c1a1" x="917.375207" y="185.884315" style="stroke: #000000"/>
     <use xlink:href="#m38d675c1a1" x="938.127273" y="207.374546" style="stroke: #000000"/>
     <use xlink:href="#m38d675c1a1" x="958.879339" y="230.622547" style="stroke: #000000"/>
     <use xlink:href="#m38d675c1a1" x="979.631405" y="255.484986" style="stroke: #000000"/>
     <use xlink:href="#m38d675c1a1" x="1000.383471" y="281.808579" style="stroke: #000000"/>
     <use xlink:href="#m38d675c1a1" x="1021.135537" y="309.431031" style="stroke: #000000"/>
     <use xlink:href="#m38d675c1a1" x="1041.887603" y="338.18204" style="stroke: #000000"/>
     <use xlink:href="#m38d675c1a1" x="1062.639669" y="367.884348" style="stroke: #000000"/>
     <use xlink:href="#m38d675c1a1" x="1083.391736" y="398.354829" style="stroke: #000000"/>
     <use xlink:href="#m38d675c1a1" x="1104.143802" y="429.405624" style="stroke: #000000"/>
     <use xlink:href="#m38d675c1a1" x="1124.895868" y="460.845293" style="stroke: #000000"/>
     <use xlink:href="#m38d675c1a1" x="1145.647934" y="492.48" style="stroke: #000000"/>
    </g>
   </g>
   <g id="matplotlib.axis_3">
    <g id="xtick_7">
     <g id="line2d_29">
      <path d="M 730.606612 512.64 
L 730.606612 69.12 
" clip-path="url(#pf780fe09f2)" style="fill: none; stroke: #b0b0b0; stroke-width: 0.8; stroke-linecap: square"/>
     </g>
     <g id="line2d_30">
      <g>
       <use xlink:href="#mea2c4ced5a" x="730.606612" y="512.64" style="stroke: #000000; stroke-width: 0.8"/>
      </g>
     </g>
     <g id="text_21">
      <!-- 0.0 -->
      <g transform="translate(714.703487 534.836875) scale(0.2 -0.2)">
       <use xlink:href="#DejaVuSans-30"/>
       <use xlink:href="#DejaVuSans-2e" x="63.623047"/>
       <use xlink:href="#DejaVuSans-30" x="95.410156"/>
      </g>
     </g>
    </g>
    <g id="xtick_8">
     <g id="line2d_31">
      <path d="M 813.614876 512.64 
L 813.614876 69.12 
" clip-path="url(#pf780fe09f2)" style="fill: none; stroke: #b0b0b0; stroke-width: 0.8; stroke-linecap: square"/>
     </g>
     <g id="line2d_32">
      <g>
       <use xlink:href="#mea2c4ced5a" x="813.614876" y="512.64" style="stroke: #000000; stroke-width: 0.8"/>
      </g>
     </g>
     <g id="text_22">
      <!-- 0.2 -->
      <g transform="translate(797.711751 534.836875) scale(0.2 -0.2)">
       <use xlink:href="#DejaVuSans-30"/>
       <use xlink:href="#DejaVuSans-2e" x="63.623047"/>
       <use xlink:href="#DejaVuSans-32" x="95.410156"/>
      </g>
     </g>
    </g>
    <g id="xtick_9">
     <g id="line2d_33">
      <path d="M 896.62314 512.64 
L 896.62314 69.12 
" clip-path="url(#pf780fe09f2)" style="fill: none; stroke: #b0b0b0; stroke-width: 0.8; stroke-linecap: square"/>
     </g>
     <g id="line2d_34">
      <g>
       <use xlink:href="#mea2c4ced5a" x="896.62314" y="512.64" style="stroke: #000000; stroke-width: 0.8"/>
      </g>
     </g>
     <g id="text_23">
      <!-- 0.4 -->
      <g transform="translate(880.720015 534.836875) scale(0.2 -0.2)">
       <use xlink:href="#DejaVuSans-30"/>
       <use xlink:href="#DejaVuSans-2e" x="63.623047"/>
       <use xlink:href="#DejaVuSans-34" x="95.410156"/>
      </g>
     </g>
    </g>
    <g id="xtick_10">
     <g id="line2d_35">
      <path d="M 979.631405 512.64 
L 979.631405 69.12 
" clip-path="url(#pf780fe09f2)" style="fill: none; stroke: #b0b0b0; stroke-width: 0.8; stroke-linecap: square"/>
     </g>
     <g id="line2d_36">
      <g>
       <use xlink:href="#mea2c4ced5a" x="979.631405" y="512.64" style="stroke: #000000; stroke-width: 0.8"/>
      </g>
     </g>
     <g id="text_24">
      <!-- 0.6 -->
      <g transform="translate(963.72828 534.836875) scale(0.2 -0.2)">
       <use xlink:href="#DejaVuSans-30"/>
       <use xlink:href="#DejaVuSans-2e" x="63.623047"/>
       <use xlink:href="#DejaVuSans-36" x="95.410156"/>
      </g>
     </g>
    </g>
    <g id="xtick_11">
     <g id="line2d_37">
      <path d="M 1062.639669 512.64 
L 1062.639669 69.12 
" clip-path="url(#pf780fe09f2)" style="fill: none; stroke: #b0b0b0; stroke-width: 0.8; stroke-linecap: square"/>
     </g>
     <g id="line2d_38">
      <g>
       <use xlink:href="#mea2c4ced5a" x="1062.639669" y="512.64" style="stroke: #000000; stroke-width: 0.8"/>
      </g>
     </g>
     <g id="text_25">
      <!-- 0.8 -->
      <g transform="translate(1046.736544 534.836875) scale(0.2 -0.2)">
       <use xlink:href="#DejaVuSans-30"/>
       <use xlink:href="#DejaVuSans-2e" x="63.623047"/>
       <use xlink:href="#DejaVuSans-38" x="95.410156"/>
      </g>
     </g>
    </g>
    <g id="xtick_12">
     <g id="line2d_39">
      <path d="M 1145.647934 512.64 
L 1145.647934 69.12 
" clip-path="url(#pf780fe09f2)" style="fill: none; stroke: #b0b0b0; stroke-width: 0.8; stroke-linecap: square"/>
     </g>
     <g id="line2d_40">
      <g>
       <use xlink:href="#mea2c4ced5a" x="1145.647934" y="512.64" style="stroke: #000000; stroke-width: 0.8"/>
      </g>
     </g>
     <g id="text_26">
      <!-- 1.0 -->
      <g transform="translate(1129.744809 534.836875) scale(0.2 -0.2)">
       <use xlink:href="#DejaVuSans-31"/>
       <use xlink:href="#DejaVuSans-2e" x="63.623047"/>
       <use xlink:href="#DejaVuSans-30" x="95.410156"/>
      </g>
     </g>
    </g>
    <g id="text_27">
     <!-- $X = x/L$ -->
     <g transform="translate(900.727273 559.712813) scale(0.22 -0.22)">
      <use xlink:href="#DejaVuSans-Oblique-58" transform="translate(0 0.09375)"/>
      <use xlink:href="#DejaVuSans-3d" transform="translate(87.988281 0.09375)"/>
      <use xlink:href="#DejaVuSans-Oblique-78" transform="translate(191.259766 0.09375)"/>
      <use xlink:href="#DejaVuSans-2f" transform="translate(250.439453 0.09375)"/>
      <use xlink:href="#DejaVuSans-Oblique-4c" transform="translate(284.130859 0.09375)"/>
     </g>
    </g>
   </g>
   <g id="matplotlib.axis_4">
    <g id="ytick_7">
     <g id="line2d_41">
      <path d="M 709.854545 492.48 
L 1166.4 492.48 
" clip-path="url(#pf780fe09f2)" style="fill: none; stroke: #b0b0b0; stroke-width: 0.8; stroke-linecap: square"/>
     </g>
     <g id="line2d_42">
      <g>
       <use xlink:href="#m7e1bcb2569" x="709.854545" y="492.48" style="stroke: #000000; stroke-width: 0.8"/>
      </g>
     </g>
     <g id="text_28">
      <!-- 0.5 -->
      <g transform="translate(671.048295 500.078437) scale(0.2 -0.2)">
       <defs>
        <path id="DejaVuSans-35" d="M 691 4666 
L 3169 4666 
L 3169 4134 
L 1269 4134 
L 1269 2991 
Q 1406 3038 1543 3061 
Q 1681 3084 1819 3084 
Q 2600 3084 3056 2656 
Q 3513 2228 3513 1497 
Q 3513 744 3044 326 
Q 2575 -91 1722 -91 
Q 1428 -91 1123 -41 
Q 819 9 494 109 
L 494 744 
Q 775 591 1075 516 
Q 1375 441 1709 441 
Q 2250 441 2565 725 
Q 2881 1009 2881 1497 
Q 2881 1984 2565 2268 
Q 2250 2553 1709 2553 
Q 1456 2553 1204 2497 
Q 953 2441 691 2322 
L 691 4666 
z
" transform="scale(0.015625)"/>
       </defs>
       <use xlink:href="#DejaVuSans-30"/>
       <use xlink:href="#DejaVuSans-2e" x="63.623047"/>
       <use xlink:href="#DejaVuSans-35" x="95.410156"/>
      </g>
     </g>
    </g>
    <g id="ytick_8">
     <g id="line2d_43">
      <path d="M 709.854545 411.84 
L 1166.4 411.84 
" clip-path="url(#pf780fe09f2)" style="fill: none; stroke: #b0b0b0; stroke-width: 0.8; stroke-linecap: square"/>
     </g>
     <g id="line2d_44">
      <g>
       <use xlink:href="#m7e1bcb2569" x="709.854545" y="411.84" style="stroke: #000000; stroke-width: 0.8"/>
      </g>
     </g>
     <g id="text_29">
      <!-- 0.6 -->
      <g transform="translate(671.048295 419.438437) scale(0.2 -0.2)">
       <use xlink:href="#DejaVuSans-30"/>
       <use xlink:href="#DejaVuSans-2e" x="63.623047"/>
       <use xlink:href="#DejaVuSans-36" x="95.410156"/>
      </g>
     </g>
    </g>
    <g id="ytick_9">
     <g id="line2d_45">
      <path d="M 709.854545 331.2 
L 1166.4 331.2 
" clip-path="url(#pf780fe09f2)" style="fill: none; stroke: #b0b0b0; stroke-width: 0.8; stroke-linecap: square"/>
     </g>
     <g id="line2d_46">
      <g>
       <use xlink:href="#m7e1bcb2569" x="709.854545" y="331.2" style="stroke: #000000; stroke-width: 0.8"/>
      </g>
     </g>
     <g id="text_30">
      <!-- 0.7 -->
      <g transform="translate(671.048295 338.798437) scale(0.2 -0.2)">
       <defs>
        <path id="DejaVuSans-37" d="M 525 4666 
L 3525 4666 
L 3525 4397 
L 1831 0 
L 1172 0 
L 2766 4134 
L 525 4134 
L 525 4666 
z
" transform="scale(0.015625)"/>
       </defs>
       <use xlink:href="#DejaVuSans-30"/>
       <use xlink:href="#DejaVuSans-2e" x="63.623047"/>
       <use xlink:href="#DejaVuSans-37" x="95.410156"/>
      </g>
     </g>
    </g>
    <g id="ytick_10">
     <g id="line2d_47">
      <path d="M 709.854545 250.56 
L 1166.4 250.56 
" clip-path="url(#pf780fe09f2)" style="fill: none; stroke: #b0b0b0; stroke-width: 0.8; stroke-linecap: square"/>
     </g>
     <g id="line2d_48">
      <g>
       <use xlink:href="#m7e1bcb2569" x="709.854545" y="250.56" style="stroke: #000000; stroke-width: 0.8"/>
      </g>
     </g>
     <g id="text_31">
      <!-- 0.8 -->
      <g transform="translate(671.048295 258.158437) scale(0.2 -0.2)">
       <use xlink:href="#DejaVuSans-30"/>
       <use xlink:href="#DejaVuSans-2e" x="63.623047"/>
       <use xlink:href="#DejaVuSans-38" x="95.410156"/>
      </g>
     </g>
    </g>
    <g id="ytick_11">
     <g id="line2d_49">
      <path d="M 709.854545 169.92 
L 1166.4 169.92 
" clip-path="url(#pf780fe09f2)" style="fill: none; stroke: #b0b0b0; stroke-width: 0.8; stroke-linecap: square"/>
     </g>
     <g id="line2d_50">
      <g>
       <use xlink:href="#m7e1bcb2569" x="709.854545" y="169.92" style="stroke: #000000; stroke-width: 0.8"/>
      </g>
     </g>
     <g id="text_32">
      <!-- 0.9 -->
      <g transform="translate(671.048295 177.518437) scale(0.2 -0.2)">
       <defs>
        <path id="DejaVuSans-39" d="M 703 97 
L 703 672 
Q 941 559 1184 500 
Q 1428 441 1663 441 
Q 2288 441 2617 861 
Q 2947 1281 2994 2138 
Q 2813 1869 2534 1725 
Q 2256 1581 1919 1581 
Q 1219 1581 811 2004 
Q 403 2428 403 3163 
Q 403 3881 828 4315 
Q 1253 4750 1959 4750 
Q 2769 4750 3195 4129 
Q 3622 3509 3622 2328 
Q 3622 1225 3098 567 
Q 2575 -91 1691 -91 
Q 1453 -91 1209 -44 
Q 966 3 703 97 
z
M 1959 2075 
Q 2384 2075 2632 2365 
Q 2881 2656 2881 3163 
Q 2881 3666 2632 3958 
Q 2384 4250 1959 4250 
Q 1534 4250 1286 3958 
Q 1038 3666 1038 3163 
Q 1038 2656 1286 2365 
Q 1534 2075 1959 2075 
z
" transform="scale(0.015625)"/>
       </defs>
       <use xlink:href="#DejaVuSans-30"/>
       <use xlink:href="#DejaVuSans-2e" x="63.623047"/>
       <use xlink:href="#DejaVuSans-39" x="95.410156"/>
      </g>
     </g>
    </g>
    <g id="ytick_12">
     <g id="line2d_51">
      <path d="M 709.854545 89.28 
L 1166.4 89.28 
" clip-path="url(#pf780fe09f2)" style="fill: none; stroke: #b0b0b0; stroke-width: 0.8; stroke-linecap: square"/>
     </g>
     <g id="line2d_52">
      <g>
       <use xlink:href="#m7e1bcb2569" x="709.854545" y="89.28" style="stroke: #000000; stroke-width: 0.8"/>
      </g>
     </g>
     <g id="text_33">
      <!-- 1.0 -->
      <g transform="translate(671.048295 96.878437) scale(0.2 -0.2)">
       <use xlink:href="#DejaVuSans-31"/>
       <use xlink:href="#DejaVuSans-2e" x="63.623047"/>
       <use xlink:href="#DejaVuSans-30" x="95.410156"/>
      </g>
     </g>
    </g>
    <g id="text_34">
     <!-- $N = n/n_o$ -->
     <g transform="translate(662.472983 335.32) rotate(-90) scale(0.22 -0.22)">
      <defs>
       <path id="DejaVuSans-Oblique-4e" d="M 1081 4666 
L 1931 4666 
L 3219 666 
L 4000 4666 
L 4616 4666 
L 3706 0 
L 2853 0 
L 1569 4025 
L 788 0 
L 172 0 
L 1081 4666 
z
" transform="scale(0.015625)"/>
       <path id="DejaVuSans-Oblique-6e" d="M 3566 2113 
L 3156 0 
L 2578 0 
L 2988 2091 
Q 3016 2238 3031 2350 
Q 3047 2463 3047 2528 
Q 3047 2791 2881 2937 
Q 2716 3084 2419 3084 
Q 1956 3084 1622 2776 
Q 1288 2469 1184 1941 
L 800 0 
L 225 0 
L 903 3500 
L 1478 3500 
L 1363 2950 
Q 1603 3253 1940 3418 
Q 2278 3584 2650 3584 
Q 3113 3584 3367 3334 
Q 3622 3084 3622 2631 
Q 3622 2519 3608 2391 
Q 3594 2263 3566 2113 
z
" transform="scale(0.015625)"/>
       <path id="DejaVuSans-Oblique-6f" d="M 1625 -91 
Q 1009 -91 651 289 
Q 294 669 294 1325 
Q 294 1706 417 2101 
Q 541 2497 738 2766 
Q 1047 3184 1428 3384 
Q 1809 3584 2291 3584 
Q 2888 3584 3255 3212 
Q 3622 2841 3622 2241 
Q 3622 1825 3500 1412 
Q 3378 1000 3181 728 
Q 2875 309 2494 109 
Q 2113 -91 1625 -91 
z
M 891 1344 
Q 891 869 1089 633 
Q 1288 397 1691 397 
Q 2269 397 2648 901 
Q 3028 1406 3028 2181 
Q 3028 2634 2825 2865 
Q 2622 3097 2228 3097 
Q 1903 3097 1650 2945 
Q 1397 2794 1197 2484 
Q 1050 2253 970 1956 
Q 891 1659 891 1344 
z
" transform="scale(0.015625)"/>
      </defs>
      <use xlink:href="#DejaVuSans-Oblique-4e" transform="translate(0 0.09375)"/>
      <use xlink:href="#DejaVuSans-3d" transform="translate(94.287109 0.09375)"/>
      <use xlink:href="#DejaVuSans-Oblique-6e" transform="translate(197.558594 0.09375)"/>
      <use xlink:href="#DejaVuSans-2f" transform="translate(260.9375 0.09375)"/>
      <use xlink:href="#DejaVuSans-Oblique-6e" transform="translate(294.628906 0.09375)"/>
      <use xlink:href="#DejaVuSans-Oblique-6f" transform="translate(358.007812 -16.3125) scale(0.7)"/>
     </g>
    </g>
   </g>
   <g id="line2d_53">
    <path d="M 730.606612 89.28 
L 738.907438 89.385638 
L 747.208264 89.700941 
L 755.509091 90.226714 
L 764.224959 91.005696 
L 772.525785 91.964506 
L 780.826612 93.134592 
L 789.127438 94.516762 
L 797.428264 96.111821 
L 806.144132 98.016538 
L 814.86 100.159142 
L 823.575868 102.539635 
L 832.291736 105.160435 
L 840.592562 107.880422 
L 849.30843 110.974579 
L 858.439339 114.480806 
L 866.740165 117.903974 
L 875.040992 121.555354 
L 882.926777 125.237376 
L 891.227603 129.340339 
L 899.52843 133.680384 
L 908.244298 138.496205 
L 916.960165 143.581363 
L 925.676033 148.941504 
L 933.97686 154.30729 
L 942.277686 159.933542 
L 950.993554 166.129114 
L 959.29438 172.31017 
L 967.180165 178.443648 
L 975.06595 184.840819 
L 982.951736 191.508941 
L 990.837521 198.460109 
L 998.308264 205.315315 
L 1006.19405 212.850317 
L 1013.664793 220.284518 
L 1021.135537 228.021926 
L 1028.606281 236.080282 
L 1035.661983 244.002355 
L 1043.132727 252.745344 
L 1050.18843 261.360115 
L 1056.829091 269.8128 
L 1063.469752 278.628365 
L 1069.695372 287.252006 
L 1075.920992 296.259494 
L 1081.73157 305.050061 
L 1087.542149 314.255117 
L 1092.937686 323.219866 
L 1097.918182 331.901568 
L 1102.898678 341.02921 
L 1107.464132 349.850419 
L 1111.614545 358.308749 
L 1115.764959 367.263014 
L 1119.500331 375.826982 
L 1123.235702 384.974784 
L 1126.556033 393.712934 
L 1129.461322 401.951117 
L 1132.366612 410.899738 
L 1134.85686 419.317747 
L 1136.932066 427.048704 
L 1139.007273 435.690893 
L 1140.667438 443.567002 
L 1141.912562 450.331891 
L 1143.157686 458.27735 
L 1143.987769 464.709197 
L 1144.817851 473.017536 
L 1145.232893 478.920384 
L 1145.647934 492.475162 
L 1145.647934 492.475162 
" clip-path="url(#pf780fe09f2)" style="fill: none; stroke: #d62728; stroke-width: 2; stroke-linecap: square"/>
   </g>
   <g id="line2d_54">
    <path d="M 730.606612 89.28 
L 740.152562 89.387251 
L 749.283471 89.688845 
L 759.244463 90.241229 
L 769.205455 91.028275 
L 778.751405 92.003213 
L 787.882314 93.138624 
L 797.428264 94.54176 
L 806.559174 96.090854 
L 815.690083 97.844774 
L 825.236033 99.901901 
L 834.366942 102.085632 
L 843.497851 104.483866 
L 853.043802 107.226432 
L 861.759669 109.943194 
L 870.890579 113.013158 
L 880.021488 116.316979 
L 888.737355 119.694989 
L 897.453223 123.297984 
L 906.584132 127.321114 
L 914.884959 131.206349 
L 923.600826 135.52704 
L 932.316694 140.104166 
L 941.032562 144.948211 
L 949.74843 150.069658 
L 958.464298 155.482214 
L 966.765124 160.91977 
L 974.650909 166.353293 
L 982.536694 172.062605 
L 990.422479 178.062221 
L 997.893223 184.028774 
L 1005.363967 190.287245 
L 1012.834711 196.856986 
L 1019.890413 203.36544 
L 1026.531074 209.779546 
L 1033.171736 216.492826 
L 1039.812397 223.529472 
L 1046.038017 230.441126 
L 1052.263636 237.683405 
L 1058.489256 245.286144 
L 1064.299835 252.73728 
L 1069.695372 259.991654 
L 1075.090909 267.602458 
L 1080.486446 275.606784 
L 1085.466942 283.382899 
L 1090.447438 291.57673 
L 1095.012893 299.49961 
L 1099.578347 307.868429 
L 1103.72876 315.916301 
L 1107.879174 324.4464 
L 1111.614545 332.598298 
L 1115.349917 341.276774 
L 1118.670248 349.508506 
L 1121.990579 358.322458 
L 1124.895868 366.606605 
L 1127.801157 375.544742 
L 1130.291405 383.847437 
L 1132.781653 392.899277 
L 1134.85686 401.172134 
L 1136.932066 410.325581 
L 1138.592231 418.496832 
L 1140.252397 427.731725 
L 1141.497521 435.661056 
L 1142.742645 444.932237 
L 1143.572727 452.303539 
L 1144.40281 461.398925 
L 1144.817851 467.126784 
L 1145.232893 474.731942 
L 1145.647934 492.47113 
L 1145.647934 492.47113 
" clip-path="url(#pf780fe09f2)" style="fill: none; stroke: #2ca02c; stroke-width: 2; stroke-linecap: square"/>
   </g>
   <g id="line2d_55">
    <path d="M 730.606612 89.28 
L 736.832231 89.39209 
L 743.057851 89.727552 
L 749.283471 90.287194 
L 755.509091 91.070208 
L 761.734711 92.075789 
L 767.960331 93.30313 
L 774.18595 94.753037 
L 780.41157 96.423091 
L 786.63719 98.312486 
L 793.277851 100.570406 
L 799.918512 103.075085 
L 806.559174 105.825715 
L 813.199835 108.820685 
L 819.840496 112.057574 
L 826.481157 115.535578 
L 833.121818 119.250662 
L 840.177521 123.456845 
L 847.233223 127.925914 
L 854.288926 132.65545 
L 861.759669 137.942208 
L 869.230413 143.512819 
L 876.701157 149.361638 
L 884.171901 155.48544 
L 892.057686 162.241459 
L 899.943471 169.291814 
L 907.829256 176.629248 
L 916.130083 184.65696 
L 924.84595 193.413658 
L 933.561818 202.494528 
L 942.692727 212.347123 
L 951.823636 222.533568 
L 961.369587 233.528026 
L 970.915537 244.860365 
L 980.876529 257.028941 
L 991.252562 270.061171 
L 1001.628595 283.435315 
L 1012.834711 298.241626 
L 1024.870909 314.532518 
L 1037.322149 331.774157 
L 1049.773388 349.371418 
L 1064.299835 370.30153 
L 1078.826281 391.600166 
L 1096.673058 418.177498 
L 1119.915372 453.28009 
L 1145.647934 492.48 
L 1145.647934 492.48 
" clip-path="url(#pf780fe09f2)" style="fill: none; stroke: #7f7f7f; stroke-width: 2; stroke-linecap: square"/>
   </g>
   <g id="patch_9">
    <path d="M 709.854545 512.64 
L 709.854545 69.12 
" style="fill: none; stroke: #000000; stroke-width: 0.8; stroke-linejoin: miter; stroke-linecap: square"/>
   </g>
   <g id="patch_10">
    <path d="M 1166.4 512.64 
L 1166.4 69.12 
" style="fill: none; stroke: #000000; stroke-width: 0.8; stroke-linejoin: miter; stroke-linecap: square"/>
   </g>
   <g id="patch_11">
    <path d="M 709.854545 512.64 
L 1166.4 512.64 
" style="fill: none; stroke: #000000; stroke-width: 0.8; stroke-linejoin: miter; stroke-linecap: square"/>
   </g>
   <g id="patch_12">
    <path d="M 709.854545 69.12 
L 1166.4 69.12 
" style="fill: none; stroke: #000000; stroke-width: 0.8; stroke-linejoin: miter; stroke-linecap: square"/>
   </g>
   <g id="text_35">
    <!-- A -->
    <g style="fill: #ff0000" transform="translate(1000.383471 234.432) scale(0.16 -0.16)">
     <use xlink:href="#DejaVuSans-41"/>
    </g>
   </g>
   <g id="text_36">
    <!-- B -->
    <g style="fill: #008000" transform="translate(1041.887603 210.24) scale(0.16 -0.16)">
     <use xlink:href="#DejaVuSans-42"/>
    </g>
   </g>
   <g id="text_37">
    <!-- C -->
    <g style="fill: #808080" transform="translate(954.728926 258.624) scale(0.16 -0.16)">
     <use xlink:href="#DejaVuSans-43"/>
    </g>
   </g>
   <g id="text_38">
    <!-- N(X) -->
    <g transform="translate(911.566023 63.12) scale(0.24 -0.24)">
     <defs>
      <path id="DejaVuSans-4e" d="M 628 4666 
L 1478 4666 
L 3547 763 
L 3547 4666 
L 4159 4666 
L 4159 0 
L 3309 0 
L 1241 3903 
L 1241 0 
L 628 0 
L 628 4666 
z
" transform="scale(0.015625)"/>
     </defs>
     <use xlink:href="#DejaVuSans-4e"/>
     <use xlink:href="#DejaVuSans-28" x="74.804688"/>
     <use xlink:href="#DejaVuSans-58" x="113.818359"/>
     <use xlink:href="#DejaVuSans-29" x="182.324219"/>
    </g>
   </g>
   <g id="legend_2">
    <g id="patch_13">
     <path d="M 990.1875 143.8325 
L 1152.4 143.8325 
Q 1156.4 143.8325 1156.4 139.8325 
L 1156.4 83.12 
Q 1156.4 79.12 1152.4 79.12 
L 990.1875 79.12 
Q 986.1875 79.12 986.1875 83.12 
L 986.1875 139.8325 
Q 986.1875 143.8325 990.1875 143.8325 
z
" style="fill: #ffffff; opacity: 0.8; stroke: #cccccc; stroke-linejoin: miter"/>
    </g>
    <g id="PathCollection_8">
     <g>
      <use xlink:href="#m38d675c1a1" x="1014.1875" y="97.066875" style="stroke: #000000"/>
     </g>
    </g>
    <g id="text_39">
     <!-- Analytical -->
     <g transform="translate(1050.1875 102.316875) scale(0.2 -0.2)">
      <use xlink:href="#DejaVuSans-41"/>
      <use xlink:href="#DejaVuSans-6e" x="68.408203"/>
      <use xlink:href="#DejaVuSans-61" x="131.787109"/>
      <use xlink:href="#DejaVuSans-6c" x="193.066406"/>
      <use xlink:href="#DejaVuSans-79" x="220.849609"/>
      <use xlink:href="#DejaVuSans-74" x="280.029297"/>
      <use xlink:href="#DejaVuSans-69" x="319.238281"/>
      <use xlink:href="#DejaVuSans-63" x="347.021484"/>
      <use xlink:href="#DejaVuSans-61" x="402.001953"/>
      <use xlink:href="#DejaVuSans-6c" x="463.28125"/>
     </g>
    </g>
    <g id="line2d_56">
     <path d="M 994.1875 124.673125 
L 1014.1875 124.673125 
L 1034.1875 124.673125 
" style="fill: none; stroke: #7f7f7f; stroke-width: 2; stroke-linecap: square"/>
    </g>
    <g id="text_40">
     <!-- FEM -->
     <g transform="translate(1050.1875 131.673125) scale(0.2 -0.2)">
      <use xlink:href="#DejaVuSans-46"/>
      <use xlink:href="#DejaVuSans-45" x="57.519531"/>
      <use xlink:href="#DejaVuSans-4d" x="120.703125"/>
     </g>
    </g>
   </g>
  </g>
  <g id="text_41">
   <!-- Comparison of plasma velocity and density for different source types -->
   <g transform="translate(267.253906 28.236562) scale(0.22 -0.22)">
    <defs>
     <path id="DejaVuSans-6f" d="M 1959 3097 
Q 1497 3097 1228 2736 
Q 959 2375 959 1747 
Q 959 1119 1226 758 
Q 1494 397 1959 397 
Q 2419 397 2687 759 
Q 2956 1122 2956 1747 
Q 2956 2369 2687 2733 
Q 2419 3097 1959 3097 
z
M 1959 3584 
Q 2709 3584 3137 3096 
Q 3566 2609 3566 1747 
Q 3566 888 3137 398 
Q 2709 -91 1959 -91 
Q 1206 -91 779 398 
Q 353 888 353 1747 
Q 353 2609 779 3096 
Q 1206 3584 1959 3584 
z
" transform="scale(0.015625)"/>
     <path id="DejaVuSans-6d" d="M 3328 2828 
Q 3544 3216 3844 3400 
Q 4144 3584 4550 3584 
Q 5097 3584 5394 3201 
Q 5691 2819 5691 2113 
L 5691 0 
L 5113 0 
L 5113 2094 
Q 5113 2597 4934 2840 
Q 4756 3084 4391 3084 
Q 3944 3084 3684 2787 
Q 3425 2491 3425 1978 
L 3425 0 
L 2847 0 
L 2847 2094 
Q 2847 2600 2669 2842 
Q 2491 3084 2119 3084 
Q 1678 3084 1418 2786 
Q 1159 2488 1159 1978 
L 1159 0 
L 581 0 
L 581 3500 
L 1159 3500 
L 1159 2956 
Q 1356 3278 1631 3431 
Q 1906 3584 2284 3584 
Q 2666 3584 2933 3390 
Q 3200 3197 3328 2828 
z
" transform="scale(0.015625)"/>
     <path id="DejaVuSans-70" d="M 1159 525 
L 1159 -1331 
L 581 -1331 
L 581 3500 
L 1159 3500 
L 1159 2969 
Q 1341 3281 1617 3432 
Q 1894 3584 2278 3584 
Q 2916 3584 3314 3078 
Q 3713 2572 3713 1747 
Q 3713 922 3314 415 
Q 2916 -91 2278 -91 
Q 1894 -91 1617 61 
Q 1341 213 1159 525 
z
M 3116 1747 
Q 3116 2381 2855 2742 
Q 2594 3103 2138 3103 
Q 1681 3103 1420 2742 
Q 1159 2381 1159 1747 
Q 1159 1113 1420 752 
Q 1681 391 2138 391 
Q 2594 391 2855 752 
Q 3116 1113 3116 1747 
z
" transform="scale(0.015625)"/>
     <path id="DejaVuSans-72" d="M 2631 2963 
Q 2534 3019 2420 3045 
Q 2306 3072 2169 3072 
Q 1681 3072 1420 2755 
Q 1159 2438 1159 1844 
L 1159 0 
L 581 0 
L 581 3500 
L 1159 3500 
L 1159 2956 
Q 1341 3275 1631 3429 
Q 1922 3584 2338 3584 
Q 2397 3584 2469 3576 
Q 2541 3569 2628 3553 
L 2631 2963 
z
" transform="scale(0.015625)"/>
     <path id="DejaVuSans-73" d="M 2834 3397 
L 2834 2853 
Q 2591 2978 2328 3040 
Q 2066 3103 1784 3103 
Q 1356 3103 1142 2972 
Q 928 2841 928 2578 
Q 928 2378 1081 2264 
Q 1234 2150 1697 2047 
L 1894 2003 
Q 2506 1872 2764 1633 
Q 3022 1394 3022 966 
Q 3022 478 2636 193 
Q 2250 -91 1575 -91 
Q 1294 -91 989 -36 
Q 684 19 347 128 
L 347 722 
Q 666 556 975 473 
Q 1284 391 1588 391 
Q 1994 391 2212 530 
Q 2431 669 2431 922 
Q 2431 1156 2273 1281 
Q 2116 1406 1581 1522 
L 1381 1569 
Q 847 1681 609 1914 
Q 372 2147 372 2553 
Q 372 3047 722 3315 
Q 1072 3584 1716 3584 
Q 2034 3584 2315 3537 
Q 2597 3491 2834 3397 
z
" transform="scale(0.015625)"/>
     <path id="DejaVuSans-20" transform="scale(0.015625)"/>
     <path id="DejaVuSans-66" d="M 2375 4863 
L 2375 4384 
L 1825 4384 
Q 1516 4384 1395 4259 
Q 1275 4134 1275 3809 
L 1275 3500 
L 2222 3500 
L 2222 3053 
L 1275 3053 
L 1275 0 
L 697 0 
L 697 3053 
L 147 3053 
L 147 3500 
L 697 3500 
L 697 3744 
Q 697 4328 969 4595 
Q 1241 4863 1831 4863 
L 2375 4863 
z
" transform="scale(0.015625)"/>
     <path id="DejaVuSans-76" d="M 191 3500 
L 800 3500 
L 1894 563 
L 2988 3500 
L 3597 3500 
L 2284 0 
L 1503 0 
L 191 3500 
z
" transform="scale(0.015625)"/>
     <path id="DejaVuSans-65" d="M 3597 1894 
L 3597 1613 
L 953 1613 
Q 991 1019 1311 708 
Q 1631 397 2203 397 
Q 2534 397 2845 478 
Q 3156 559 3463 722 
L 3463 178 
Q 3153 47 2828 -22 
Q 2503 -91 2169 -91 
Q 1331 -91 842 396 
Q 353 884 353 1716 
Q 353 2575 817 3079 
Q 1281 3584 2069 3584 
Q 2775 3584 3186 3129 
Q 3597 2675 3597 1894 
z
M 3022 2063 
Q 3016 2534 2758 2815 
Q 2500 3097 2075 3097 
Q 1594 3097 1305 2825 
Q 1016 2553 972 2059 
L 3022 2063 
z
" transform="scale(0.015625)"/>
     <path id="DejaVuSans-64" d="M 2906 2969 
L 2906 4863 
L 3481 4863 
L 3481 0 
L 2906 0 
L 2906 525 
Q 2725 213 2448 61 
Q 2172 -91 1784 -91 
Q 1150 -91 751 415 
Q 353 922 353 1747 
Q 353 2572 751 3078 
Q 1150 3584 1784 3584 
Q 2172 3584 2448 3432 
Q 2725 3281 2906 2969 
z
M 947 1747 
Q 947 1113 1208 752 
Q 1469 391 1925 391 
Q 2381 391 2643 752 
Q 2906 1113 2906 1747 
Q 2906 2381 2643 2742 
Q 2381 3103 1925 3103 
Q 1469 3103 1208 2742 
Q 947 2381 947 1747 
z
" transform="scale(0.015625)"/>
     <path id="DejaVuSans-75" d="M 544 1381 
L 544 3500 
L 1119 3500 
L 1119 1403 
Q 1119 906 1312 657 
Q 1506 409 1894 409 
Q 2359 409 2629 706 
Q 2900 1003 2900 1516 
L 2900 3500 
L 3475 3500 
L 3475 0 
L 2900 0 
L 2900 538 
Q 2691 219 2414 64 
Q 2138 -91 1772 -91 
Q 1169 -91 856 284 
Q 544 659 544 1381 
z
M 1991 3584 
L 1991 3584 
z
" transform="scale(0.015625)"/>
    </defs>
    <use xlink:href="#DejaVuSans-43"/>
    <use xlink:href="#DejaVuSans-6f" x="69.824219"/>
    <use xlink:href="#DejaVuSans-6d" x="131.005859"/>
    <use xlink:href="#DejaVuSans-70" x="228.417969"/>
    <use xlink:href="#DejaVuSans-61" x="291.894531"/>
    <use xlink:href="#DejaVuSans-72" x="353.173828"/>
    <use xlink:href="#DejaVuSans-69" x="394.287109"/>
    <use xlink:href="#DejaVuSans-73" x="422.070312"/>
    <use xlink:href="#DejaVuSans-6f" x="474.169922"/>
    <use xlink:href="#DejaVuSans-6e" x="535.351562"/>
    <use xlink:href="#DejaVuSans-20" x="598.730469"/>
    <use xlink:href="#DejaVuSans-6f" x="630.517578"/>
    <use xlink:href="#DejaVuSans-66" x="691.699219"/>
    <use xlink:href="#DejaVuSans-20" x="726.904297"/>
    <use xlink:href="#DejaVuSans-70" x="758.691406"/>
    <use xlink:href="#DejaVuSans-6c" x="822.167969"/>
    <use xlink:href="#DejaVuSans-61" x="849.951172"/>
    <use xlink:href="#DejaVuSans-73" x="911.230469"/>
    <use xlink:href="#DejaVuSans-6d" x="963.330078"/>
    <use xlink:href="#DejaVuSans-61" x="1060.742188"/>
    <use xlink:href="#DejaVuSans-20" x="1122.021484"/>
    <use xlink:href="#DejaVuSans-76" x="1153.808594"/>
    <use xlink:href="#DejaVuSans-65" x="1212.988281"/>
    <use xlink:href="#DejaVuSans-6c" x="1274.511719"/>
    <use xlink:href="#DejaVuSans-6f" x="1302.294922"/>
    <use xlink:href="#DejaVuSans-63" x="1363.476562"/>
    <use xlink:href="#DejaVuSans-69" x="1418.457031"/>
    <use xlink:href="#DejaVuSans-74" x="1446.240234"/>
    <use xlink:href="#DejaVuSans-79" x="1485.449219"/>
    <use xlink:href="#DejaVuSans-20" x="1544.628906"/>
    <use xlink:href="#DejaVuSans-61" x="1576.416016"/>
    <use xlink:href="#DejaVuSans-6e" x="1637.695312"/>
    <use xlink:href="#DejaVuSans-64" x="1701.074219"/>
    <use xlink:href="#DejaVuSans-20" x="1764.550781"/>
    <use xlink:href="#DejaVuSans-64" x="1796.337891"/>
    <use xlink:href="#DejaVuSans-65" x="1859.814453"/>
    <use xlink:href="#DejaVuSans-6e" x="1921.337891"/>
    <use xlink:href="#DejaVuSans-73" x="1984.716797"/>
    <use xlink:href="#DejaVuSans-69" x="2036.816406"/>
    <use xlink:href="#DejaVuSans-74" x="2064.599609"/>
    <use xlink:href="#DejaVuSans-79" x="2103.808594"/>
    <use xlink:href="#DejaVuSans-20" x="2162.988281"/>
    <use xlink:href="#DejaVuSans-66" x="2194.775391"/>
    <use xlink:href="#DejaVuSans-6f" x="2229.980469"/>
    <use xlink:href="#DejaVuSans-72" x="2291.162109"/>
    <use xlink:href="#DejaVuSans-20" x="2332.275391"/>
    <use xlink:href="#DejaVuSans-64" x="2364.0625"/>
    <use xlink:href="#DejaVuSans-69" x="2427.539062"/>
    <use xlink:href="#DejaVuSans-66" x="2455.322266"/>
    <use xlink:href="#DejaVuSans-66" x="2490.527344"/>
    <use xlink:href="#DejaVuSans-65" x="2525.732422"/>
    <use xlink:href="#DejaVuSans-72" x="2587.255859"/>
    <use xlink:href="#DejaVuSans-65" x="2626.119141"/>
    <use xlink:href="#DejaVuSans-6e" x="2687.642578"/>
    <use xlink:href="#DejaVuSans-74" x="2751.021484"/>
    <use xlink:href="#DejaVuSans-20" x="2790.230469"/>
    <use xlink:href="#DejaVuSans-73" x="2822.017578"/>
    <use xlink:href="#DejaVuSans-6f" x="2874.117188"/>
    <use xlink:href="#DejaVuSans-75" x="2935.298828"/>
    <use xlink:href="#DejaVuSans-72" x="2998.677734"/>
    <use xlink:href="#DejaVuSans-63" x="3037.541016"/>
    <use xlink:href="#DejaVuSans-65" x="3092.521484"/>
    <use xlink:href="#DejaVuSans-20" x="3154.044922"/>
    <use xlink:href="#DejaVuSans-74" x="3185.832031"/>
    <use xlink:href="#DejaVuSans-79" x="3225.041016"/>
    <use xlink:href="#DejaVuSans-70" x="3284.220703"/>
    <use xlink:href="#DejaVuSans-65" x="3347.697266"/>
    <use xlink:href="#DejaVuSans-73" x="3409.220703"/>
   </g>
  </g>
 </g>
 <defs>
  <clipPath id="p52a878747e">
   <rect x="162" y="69.12" width="456.545455" height="443.52"/>
  </clipPath>
  <clipPath id="pf780fe09f2">
   <rect x="709.854545" y="69.12" width="456.545455" height="443.52"/>
  </clipPath>
 </defs>
</svg>
